<svg width="116" height="18" viewBox="0 0 116 18" fill="none" xmlns="http://www.w3.org/2000/svg">
<path d="M72.4961 7.59912H51.099C50.9791 7.59912 50.9291 7.75641 51.0291 7.81539L53.3477 9.32932L55.4664 10.7843C55.5563 10.8531 55.6762 10.8826 55.7862 10.8826L65.1106 10.9416C65.3604 10.9416 65.5603 11.1873 65.5603 11.4822V12.947C65.5603 14.402 64.6308 14.864 63.2417 14.864H48.1008C47.0015 14.864 45.8222 14.0382 45.7422 12.6521V5.32823C45.8322 3.89295 46.7916 3.11633 47.8909 3.11633H63.0418C64.5609 3.11633 65.2904 3.716 65.2904 4.82686V5.16111H74.7048V4.27635C74.7048 1.84817 71.8465 0 68.9682 0H42.7341C39.7858 0 36.5878 1.78918 36.5878 5.60349V12.3768C36.5878 15.9945 39.8558 17.9705 42.794 17.9705H69.0082C72.2562 17.9705 74.7048 16.7318 74.7048 12.3768V9.46695C74.7048 8.12014 74.295 7.58929 72.4861 7.58929L72.4961 7.59912Z" fill="#2F2C4D"/>
<path d="M36.6879 17.9901H25.5346C25.2148 17.9901 24.895 17.9016 24.6151 17.7345L15.3108 11.6886C14.7111 11.3347 14.0215 11.1479 13.332 11.1479H9.18446V17.9803H0V0.00976562H9.18446V6.85193H13.282C13.9816 6.85193 14.6612 6.66514 15.2608 6.31124L25.0449 0.265366C25.3247 0.0982439 25.6345 0.0195984 25.9643 0.0195984H36.6879L23.5758 8.43466L20.1678 7.40245L36.6879 17.9999V17.9901Z" fill="#2F2C4D"/>
<path d="M89.6859 0H78.4526V17.9803H87.6071V5.04314L94.6529 11.5511H100.629L106.846 5.04314V17.9803H116V0H104.777L98.0308 6.27198L100.489 9.39813L89.6859 0Z" fill="#2F2C4D"/>
</svg>
