<svg width="24" height="24" viewBox="0 0 24 24" fill="none" xmlns="http://www.w3.org/2000/svg">
<path fill-rule="evenodd" clip-rule="evenodd" d="M2 12C2 11.2471 2.41605 10.5913 3.0308 10.2501C3.41186 5.63041 7.28196 2 12 2C16.718 2 20.5881 5.63041 20.9692 10.2501C21.5839 10.5913 22 11.2471 22 12V14C22 14.8386 21.4838 15.5567 20.7519 15.8539C20.113 18.1859 18.2983 20.0319 15.9848 20.7146C15.8806 21.4414 15.2556 22 14.5 22C13.6716 22 13 21.3284 13 20.5C13 19.6716 13.6716 19 14.5 19C15.0466 19 15.525 19.2924 15.7872 19.7293C17.6013 19.164 19.0459 17.7609 19.6682 15.9726C18.7215 15.8145 18 14.9915 18 14V12C18 11.2745 18.3862 10.6393 18.9643 10.2887C18.6079 6.7568 15.6259 4 12 4C8.37412 4 5.39212 6.7568 5.03569 10.2887C5.61376 10.6393 6 11.2745 6 12V14C6 15.1046 5.10457 16 4 16C2.89543 16 2 15.1046 2 14V12Z" fill="#EC164D"/>
</svg>
