<svg width="215" height="42" viewBox="0 0 215 42" fill="none" xmlns="http://www.w3.org/2000/svg">
<path fill-rule="evenodd" clip-rule="evenodd" d="M33.2613 3.68579C31.0142 4.35187 28.5749 5.74547 26.7084 6.99868C25.9719 7.49322 24.975 7.29524 24.482 6.55648C23.9889 5.81771 24.1863 4.81791 24.9229 4.32337C26.8858 3.00539 29.6423 1.40143 32.3516 0.598374C34.9667 -0.176773 38.2352 -0.384034 40.3244 2.19283C42.3016 4.63155 41.9234 7.98555 41.1175 10.6469C40.2821 13.4059 38.8019 16.0535 37.6831 17.6761C37.6037 17.7985 37.5202 17.9273 37.433 18.0619C35.3505 21.276 31.0861 27.8573 26.0072 31.8759C25.3113 32.4265 24.3021 32.3071 23.7532 31.6091C23.2042 30.9111 23.3233 29.8989 24.0192 29.3483C28.6673 25.6705 32.682 19.482 34.7959 16.2236C34.8682 16.1121 34.9383 16.0041 35.0061 15.8997L35.0186 15.8804L35.0318 15.8614C36.0177 14.4349 37.3293 12.0789 38.0462 9.71135C38.796 7.23516 38.729 5.32779 37.8341 4.22399C37.0512 3.25834 35.6026 2.99179 33.2613 3.68579Z" fill="white"/>
<path fill-rule="evenodd" clip-rule="evenodd" d="M9.10058 38.3299C11.5892 37.6025 14.2587 36.1416 16.0959 34.9081C16.8324 34.4136 17.8293 34.6116 18.3223 35.3503C18.8154 36.0891 18.618 37.0889 17.8815 37.5834C15.8891 38.9211 12.9146 40.5684 9.99863 41.4207C8.5421 41.8464 6.99998 42.1041 5.55505 41.9596C4.07816 41.812 2.63442 41.2315 1.58338 39.9351C-0.39381 37.4964 -0.0156002 34.1424 0.7903 31.481C1.62577 28.722 3.10604 26.0743 4.22478 24.4517C6.25971 21.3214 10.7351 14.9979 15.9947 10.8363C16.6905 10.2857 17.6997 10.4052 18.2487 11.1032C18.7977 11.8011 18.6786 12.8133 17.9827 13.3639C13.1431 17.1932 8.89358 23.162 6.90175 26.2282L6.88917 26.2476L6.87605 26.2666C5.89012 27.693 4.57854 30.049 3.8616 32.4166C3.11178 34.8928 3.17885 36.8002 4.07376 37.904C4.45877 38.3788 5.02438 38.6712 5.87342 38.7561C6.75441 38.8441 7.85478 38.694 9.10058 38.3299Z" fill="white"/>
<path fill-rule="evenodd" clip-rule="evenodd" d="M38.2151 33.2813C37.5441 31.0184 36.1428 28.5527 34.9066 26.667C34.4197 25.9243 34.6255 24.9261 35.3661 24.4376C36.1068 23.949 37.1019 24.1551 37.5888 24.8978C38.8763 26.8617 40.4851 29.6422 41.2918 32.3629C42.0679 34.9804 42.2929 38.2906 39.6437 40.3474C37.1707 42.2673 33.8214 41.8412 31.1625 40.9984C28.4063 40.1248 25.7705 38.6119 24.158 37.4738C21.0785 35.4243 15.0166 31.2764 10.9059 25.9646C10.3625 25.2624 10.4896 24.2512 11.1899 23.706C11.8901 23.1608 12.8983 23.288 13.4417 23.9902C17.2026 28.8499 22.8671 32.751 25.9517 34.8035L25.9708 34.8162L25.9895 34.8294C27.4083 35.8331 29.758 37.1766 32.1304 37.9286C34.6111 38.7149 36.5455 38.682 37.6793 37.8018C38.6367 37.0585 38.9167 35.6474 38.2151 33.2813Z" fill="white"/>
<path fill-rule="evenodd" clip-rule="evenodd" d="M3.78859 8.58222C4.46051 10.8693 5.86329 13.3585 7.09595 15.239C7.58278 15.9817 7.37696 16.9798 6.63624 17.4685C5.89552 17.9571 4.9004 17.7511 4.41357 17.0084C3.12303 15.0396 1.51547 12.2365 0.709589 9.49352C-0.0637893 6.86112 -0.292408 3.52453 2.35901 1.46597C4.83213 -0.454162 8.18146 -0.0283994 10.8403 0.814113C13.5964 1.68746 16.232 3.20011 17.8445 4.33798C20.9384 6.39735 26.9911 10.6331 31.0967 15.9385C31.64 16.6406 31.5128 17.6518 30.8125 18.1971C30.1122 18.7424 29.104 18.6153 28.5606 17.9132C24.7956 13.0479 19.1199 9.05081 16.0504 7.0085L16.0313 6.99581L16.0126 6.98258C14.5939 5.97898 12.2444 4.63573 9.872 3.88398C7.39144 3.09796 5.45697 3.13105 4.32311 4.01139C3.36754 4.75328 3.08417 6.18455 3.78859 8.58222Z" fill="white"/>
<path fill-rule="evenodd" clip-rule="evenodd" d="M20.9849 23.2725C22.4098 23.2725 23.5193 22.1306 23.5193 20.7782C23.5193 19.4258 22.4098 18.2839 20.9849 18.2839C19.5601 18.2839 18.4506 19.4258 18.4506 20.7782C18.4506 22.1306 19.5601 23.2725 20.9849 23.2725ZM20.9849 26.4919C24.1574 26.4919 26.7291 23.9338 26.7291 20.7782C26.7291 17.6226 24.1574 15.0645 20.9849 15.0645C17.8125 15.0645 15.2407 17.6226 15.2407 20.7782C15.2407 23.9338 17.8125 26.4919 20.9849 26.4919Z" fill="white"/>
<path d="M137.014 19.9899V5.16992H146.094V7.64992H139.974V11.0699H145.154V13.5499H139.974V17.5099H146.314V19.9899H137.014Z" fill="white"/>
<path d="M129.233 20.2702C128.247 20.2702 127.28 20.0835 126.334 19.7102C125.387 19.3368 124.553 18.8035 123.833 18.1102L125.534 16.0702C126.054 16.5635 126.647 16.9635 127.313 17.2702C127.993 17.5635 128.654 17.7102 129.294 17.7102C130.067 17.7102 130.653 17.5568 131.053 17.2502C131.453 16.9435 131.654 16.5302 131.654 16.0102C131.654 15.6368 131.554 15.3435 131.354 15.1302C131.167 14.9035 130.907 14.7035 130.574 14.5302C130.24 14.3568 129.853 14.1835 129.413 14.0102L127.453 13.1502C126.96 12.9502 126.48 12.6835 126.013 12.3502C125.56 12.0035 125.18 11.5702 124.873 11.0502C124.58 10.5302 124.434 9.91016 124.434 9.19016C124.434 8.37682 124.653 7.65016 125.093 7.01016C125.533 6.37016 126.14 5.86349 126.913 5.49016C127.687 5.10349 128.567 4.91016 129.553 4.91016C130.433 4.91016 131.28 5.07682 132.093 5.41016C132.907 5.74349 133.614 6.21682 134.214 6.83016L132.714 8.67016C132.247 8.28349 131.76 7.98349 131.254 7.77016C130.747 7.55682 130.18 7.45016 129.553 7.45016C128.913 7.45016 128.4 7.59016 128.013 7.87016C127.64 8.13682 127.453 8.51682 127.453 9.01016C127.453 9.35682 127.56 9.64349 127.773 9.87016C127.987 10.0968 128.267 10.2968 128.614 10.4702C128.96 10.6302 129.34 10.7968 129.754 10.9702L131.693 11.7502C132.293 11.9902 132.814 12.2902 133.254 12.6502C133.707 13.0102 134.054 13.4435 134.294 13.9502C134.547 14.4568 134.674 15.0702 134.674 15.7902C134.674 16.5902 134.453 17.3302 134.013 18.0102C133.587 18.6902 132.967 19.2368 132.154 19.6502C131.354 20.0635 130.38 20.2702 129.233 20.2702Z" fill="white"/>
<path d="M111.891 19.9899V5.16992H117.031C118.084 5.16992 119.031 5.30992 119.871 5.58992C120.711 5.85659 121.377 6.32326 121.871 6.98992C122.364 7.64326 122.611 8.53659 122.611 9.66992C122.611 10.7633 122.364 11.6633 121.871 12.3699C121.377 13.0633 120.711 13.5766 119.871 13.9099C119.031 14.2299 118.084 14.3899 117.031 14.3899H114.851V19.9899H111.891ZM114.851 12.0499H116.771C117.731 12.0499 118.457 11.8499 118.951 11.4499C119.457 11.0499 119.711 10.4566 119.711 9.66992C119.711 8.86992 119.457 8.31659 118.951 8.00992C118.457 7.68992 117.731 7.52992 116.771 7.52992H114.851V12.0499ZM119.931 19.9899L116.491 13.6299L118.571 11.7899L123.251 19.9899H119.931Z" fill="white"/>
<path d="M99.8657 19.9899V5.16992H108.946V7.64992H102.826V11.0699H108.006V13.5499H102.826V17.5099H109.166V19.9899H99.8657Z" fill="white"/>
<path d="M90.3628 19.9899L85.8428 5.16992H88.9628L90.9028 12.3899C91.1428 13.2033 91.3494 13.9966 91.5228 14.7699C91.7094 15.5299 91.9161 16.3299 92.1428 17.1699H92.2428C92.4828 16.3299 92.6961 15.5299 92.8828 14.7699C93.0694 13.9966 93.2761 13.2033 93.5028 12.3899L95.4228 5.16992H98.4228L93.9028 19.9899H90.3628Z" fill="white"/>
<path d="M81.4414 19.9899V5.16992H84.4014V19.9899H81.4414Z" fill="white"/>
<path d="M66.7407 19.9899V5.16992H69.7607L74.0607 13.0699L75.5607 16.2699H75.6607C75.5807 15.4966 75.4941 14.6499 75.4007 13.7299C75.3074 12.8099 75.2607 11.9299 75.2607 11.0899V5.16992H78.0607V19.9899H75.0407L70.7807 12.0699L69.2807 8.88992H69.1807C69.2474 9.68992 69.3274 10.5366 69.4207 11.4299C69.5141 12.3233 69.5607 13.1966 69.5607 14.0499V19.9899H66.7407Z" fill="white"/>
<path d="M57.76 20.2699C56.84 20.2699 56.0267 20.1433 55.32 19.8899C54.6133 19.6233 54.0067 19.2099 53.5 18.6499C53.0067 18.0899 52.6333 17.3699 52.38 16.4899C52.1267 15.6099 52 14.5566 52 13.3299V5.16992H54.94V13.5899C54.94 14.6166 55.0533 15.4299 55.28 16.0299C55.5067 16.6299 55.8267 17.0633 56.24 17.3299C56.6667 17.5833 57.1733 17.7099 57.76 17.7099C58.3467 17.7099 58.8533 17.5833 59.28 17.3299C59.7067 17.0633 60.0333 16.6299 60.26 16.0299C60.5 15.4299 60.62 14.6166 60.62 13.5899V5.16992H63.46V13.3299C63.46 14.5566 63.3333 15.6099 63.08 16.4899C62.8267 17.3699 62.4533 18.0899 61.96 18.6499C61.4667 19.2099 60.8667 19.6233 60.16 19.8899C59.4533 20.1433 58.6533 20.2699 57.76 20.2699Z" fill="white"/>
<path d="M207.01 37.0895V24.7495H202.85V22.2695H214.15V24.7495H209.97V37.0895H207.01Z" fill="white"/>
<path d="M189.369 37.0895V22.2695H192.389L196.689 30.1695L198.189 33.3695H198.289C198.209 32.5962 198.122 31.7495 198.029 30.8295C197.936 29.9095 197.889 29.0295 197.889 28.1895V22.2695H200.689V37.0895H197.669L193.409 29.1695L191.909 25.9895H191.809C191.876 26.7895 191.956 27.6362 192.049 28.5295C192.142 29.4229 192.189 30.2962 192.189 31.1495V37.0895H189.369Z" fill="white"/>
<path d="M177.345 37.0895V22.2695H186.425V24.7495H180.305V28.1695H185.485V30.6495H180.305V34.6095H186.645V37.0895H177.345Z" fill="white"/>
<path d="M160.574 37.0895V22.2695H163.854L166.374 29.2295C166.534 29.6695 166.687 30.1362 166.834 30.6295C166.98 31.1095 167.127 31.5829 167.274 32.0495H167.374C167.534 31.5829 167.687 31.1095 167.834 30.6295C167.98 30.1362 168.12 29.6695 168.254 29.2295L170.734 22.2695H174.014V37.0895H171.314V30.9095C171.314 30.4295 171.334 29.9029 171.374 29.3295C171.414 28.7562 171.46 28.1829 171.514 27.6095C171.58 27.0229 171.64 26.5029 171.694 26.0495H171.614L170.394 29.5295L168.114 35.7495H166.414L164.114 29.5295L162.934 26.0495H162.854C162.907 26.5029 162.96 27.0229 163.014 27.6095C163.067 28.1829 163.114 28.7562 163.154 29.3295C163.207 29.9029 163.234 30.4295 163.234 30.9095V37.0895H160.574Z" fill="white"/>
<path d="M145.873 37.0895V22.2695H148.893L153.193 30.1695L154.693 33.3695H154.793C154.713 32.5962 154.626 31.7495 154.533 30.8295C154.44 29.9095 154.393 29.0295 154.393 28.1895V22.2695H157.193V37.0895H154.173L149.913 29.1695L148.413 25.9895H148.313C148.38 26.7895 148.46 27.6362 148.553 28.5295C148.646 29.4229 148.693 30.2962 148.693 31.1495V37.0895H145.873Z" fill="white"/>
<path d="M139.552 37.0895V22.2695H142.512V37.0895H139.552Z" fill="white"/>
<path d="M125.119 37.0895L129.859 22.2695H133.359L138.099 37.0895H134.979L132.879 29.3695C132.652 28.5962 132.432 27.7962 132.219 26.9695C132.019 26.1295 131.806 25.3162 131.579 24.5295H131.499C131.312 25.3295 131.106 26.1429 130.879 26.9695C130.666 27.7962 130.452 28.5962 130.239 29.3695L128.119 37.0895H125.119ZM128.059 33.2895V30.9895H135.099V33.2895H128.059Z" fill="white"/>
<path d="M118.755 37.0895V24.7495H114.595V22.2695H125.895V24.7495H121.715V37.0895H118.755Z" fill="white"/>
<path d="M102.97 37.0895V22.2695H108.11C109.163 22.2695 110.11 22.4095 110.95 22.6895C111.79 22.9562 112.456 23.4229 112.95 24.0895C113.443 24.7429 113.69 25.6362 113.69 26.7695C113.69 27.8629 113.443 28.7629 112.95 29.4695C112.456 30.1629 111.79 30.6762 110.95 31.0095C110.11 31.3295 109.163 31.4895 108.11 31.4895H105.93V37.0895H102.97ZM105.93 29.1495H107.85C108.81 29.1495 109.536 28.9495 110.03 28.5495C110.536 28.1495 110.79 27.5562 110.79 26.7695C110.79 25.9695 110.536 25.4162 110.03 25.1095C109.536 24.7895 108.81 24.6295 107.85 24.6295H105.93V29.1495ZM111.01 37.0895L107.57 30.7295L109.65 28.8895L114.33 37.0895H111.01Z" fill="white"/>
<path d="M90.9453 37.0895V22.2695H100.025V24.7495H93.9053V28.1695H99.0853V30.6495H93.9053V34.6095H100.245V37.0895H90.9453Z" fill="white"/>
<path d="M81.6654 37.0895V24.7495H77.5054V22.2695H88.8054V24.7495H84.6254V37.0895H81.6654Z" fill="white"/>
<path d="M64.0249 37.0895V22.2695H67.0449L71.3449 30.1695L72.8449 33.3695H72.9449C72.8649 32.5962 72.7782 31.7495 72.6849 30.8295C72.5916 29.9095 72.5449 29.0295 72.5449 28.1895V22.2695H75.3449V37.0895H72.3249L68.0649 29.1695L66.5649 25.9895H66.4649C66.5316 26.7895 66.6116 27.6362 66.7049 28.5295C66.7982 29.4229 66.8449 30.2962 66.8449 31.1495V37.0895H64.0249Z" fill="white"/>
<path d="M52 37.0895V22.2695H61.08V24.7495H54.96V28.1695H60.14V30.6495H54.96V34.6095H61.3V37.0895H52Z" fill="white"/>
</svg>
