<svg width="40" height="40" viewBox="0 0 40 40" fill="none" xmlns="http://www.w3.org/2000/svg">
<rect x="0.5" y="0.5" width="39" height="39" rx="19.5" fill="white"/>
<rect x="0.5" y="0.5" width="39" height="39" rx="19.5" stroke="#E9E9E9"/>
<path fill-rule="evenodd" clip-rule="evenodd" d="M20.7071 11.2929C20.3166 10.9024 19.6834 10.9024 19.2929 11.2929L13.2929 17.2929C12.9024 17.6834 12.9024 18.3166 13.2929 18.7071C13.6834 19.0976 14.3166 19.0976 14.7071 18.7071L19 14.4142V28C19 28.5523 19.4477 29 20 29C20.5523 29 21 28.5523 21 28V14.4142L25.2929 18.7071C25.6834 19.0976 26.3166 19.0976 26.7071 18.7071C27.0976 18.3166 27.0976 17.6834 26.7071 17.2929L20.7071 11.2929Z" fill="#1F1F1F"/>
</svg>
