<svg width="30" height="30" viewBox="0 0 30 30" fill="none" xmlns="http://www.w3.org/2000/svg">
<path d="M23.752 21.8325C24.0069 22.0874 24.1501 22.433 24.1501 22.7934C24.1501 23.1538 24.0069 23.4995 23.752 23.7543C23.4972 24.0092 23.1515 24.1523 22.7911 24.1523C22.4307 24.1523 22.085 24.0092 21.8301 23.7543L14.6523 16.5747L7.4723 23.7521C7.21744 24.0069 6.87177 24.1501 6.51134 24.1501C6.15091 24.1501 5.80525 24.0069 5.55039 23.7521C5.29552 23.4972 5.15234 23.1516 5.15234 22.7912C5.15234 22.4308 5.29552 22.0851 5.55039 21.8303L12.7304 14.6529L5.55265 7.47329C5.29778 7.21844 5.1546 6.8728 5.1546 6.51239C5.1546 6.15198 5.29778 5.80634 5.55265 5.55149C5.80751 5.29665 6.15317 5.15347 6.5136 5.15347C6.87403 5.15347 7.2197 5.29665 7.47456 5.55149L14.6523 12.7311L21.8324 5.55036C22.0872 5.29551 22.4329 5.15234 22.7933 5.15234C23.1538 5.15234 23.4994 5.29551 23.7543 5.55036C24.0092 5.80521 24.1523 6.15085 24.1523 6.51126C24.1523 6.87167 24.0092 7.21731 23.7543 7.47216L16.5743 14.6529L23.752 21.8325Z" fill="black"/>
</svg>
