<svg width="36" height="36" viewBox="0 0 36 36" fill="none" xmlns="http://www.w3.org/2000/svg">
<mask id="path-1-inside-1_1924_21682" fill="white">
<path fill-rule="evenodd" clip-rule="evenodd" d="M4.52411 6.94407C1.49195 10.2041 1.49196 15.4898 4.52416 18.7499L8.8484 23.3992L8.87049 23.4233L16.6485 31.7859C17.5329 32.7367 18.9668 32.7367 19.8512 31.7859L23.7013 27.6464L23.7407 27.6043L31.9759 18.7501C35.0081 15.49 35.008 10.2043 31.9758 6.94415C28.9436 3.684 24.0274 3.68398 20.9952 6.9441L18.2499 9.89574L15.5046 6.94412C12.4724 3.68401 7.55628 3.68399 4.52411 6.94407Z"/>
</mask>
<path fill-rule="evenodd" clip-rule="evenodd" d="M4.52411 6.94407C1.49195 10.2041 1.49196 15.4898 4.52416 18.7499L8.8484 23.3992L8.87049 23.4233L16.6485 31.7859C17.5329 32.7367 18.9668 32.7367 19.8512 31.7859L23.7013 27.6464L23.7407 27.6043L31.9759 18.7501C35.0081 15.49 35.008 10.2043 31.9758 6.94415C28.9436 3.684 24.0274 3.68398 20.9952 6.9441L18.2499 9.89574L15.5046 6.94412C12.4724 3.68401 7.55628 3.68399 4.52411 6.94407Z" fill="#F86666"/>
<path d="M4.52416 18.7499L2.87662 20.2823L2.87662 20.2823L4.52416 18.7499ZM4.52411 6.94407L6.17165 8.47643L6.17165 8.47643L4.52411 6.94407ZM8.8484 23.3992L10.5063 21.878L10.5011 21.8724L10.4959 21.8668L8.8484 23.3992ZM8.87049 23.4233L7.21261 24.9444L7.21777 24.95L7.22296 24.9556L8.87049 23.4233ZM16.6485 31.7859L15.0009 33.3182L15.0009 33.3182L16.6485 31.7859ZM19.8512 31.7859L18.2036 30.2535L18.2036 30.2535L19.8512 31.7859ZM23.7013 27.6464L22.0591 26.1083L22.0537 26.114L23.7013 27.6464ZM23.7407 27.6043L25.3828 29.1424L25.3882 29.1367L23.7407 27.6043ZM31.9759 18.7501L33.6234 20.2825L33.6234 20.2825L31.9759 18.7501ZM31.9758 6.94415L30.3283 8.47651L30.3283 8.47651L31.9758 6.94415ZM20.9952 6.9441L19.3476 5.41174L19.3476 5.41174L20.9952 6.9441ZM18.2499 9.89574L16.6024 11.4281L18.2499 13.1995L19.8974 11.4281L18.2499 9.89574ZM15.5046 6.94412L13.8571 8.47647L13.8571 8.47647L15.5046 6.94412ZM6.17169 17.2175C3.94278 14.8211 3.94278 10.8728 6.17165 8.47643L2.87658 5.41171C-0.958886 9.53546 -0.958846 16.1585 2.87662 20.2823L6.17169 17.2175ZM10.4959 21.8668L6.17169 17.2175L2.87662 20.2823L7.20087 24.9315L10.4959 21.8668ZM10.5284 21.9021L10.5063 21.878L7.19052 24.9203L7.21261 24.9444L10.5284 21.9021ZM18.296 30.2535L10.518 21.8909L7.22296 24.9556L15.0009 33.3182L18.296 30.2535ZM18.2036 30.2535C18.1909 30.2672 18.1895 30.264 18.2028 30.2582C18.2148 30.253 18.2312 30.249 18.2498 30.249C18.2685 30.249 18.2849 30.253 18.2969 30.2582C18.3101 30.264 18.3087 30.2672 18.296 30.2535L15.0009 33.3182C16.7753 35.2259 19.7243 35.226 21.4987 33.3182L18.2036 30.2535ZM22.0537 26.114L18.2036 30.2535L21.4987 33.3182L25.3488 29.1787L22.0537 26.114ZM22.0985 26.0662L22.0591 26.1083L25.3434 29.1845L25.3828 29.1424L22.0985 26.0662ZM30.3283 17.2178L22.0931 26.072L25.3882 29.1367L33.6234 20.2825L30.3283 17.2178ZM30.3283 8.47651C32.5572 10.873 32.5572 14.8213 30.3283 17.2178L33.6234 20.2825C37.4589 16.1587 37.4589 9.53559 33.6234 5.41179L30.3283 8.47651ZM22.6427 8.47646C24.7849 6.17321 28.186 6.1732 30.3283 8.47651L33.6234 5.41179C29.7012 1.1948 23.2698 1.19476 19.3476 5.41174L22.6427 8.47646ZM19.8974 11.4281L22.6427 8.47646L19.3476 5.41174L16.6024 8.36338L19.8974 11.4281ZM13.8571 8.47647L16.6024 11.4281L19.8974 8.36338L17.1521 5.41176L13.8571 8.47647ZM6.17165 8.47643C8.31384 6.17322 11.7148 6.17321 13.8571 8.47647L17.1521 5.41176C13.23 1.19481 6.79872 1.19476 2.87658 5.41171L6.17165 8.47643Z" fill="#F86666" mask="url(#path-1-inside-1_1924_21682)"/>
</svg>
