<svg width="24" height="24" viewBox="0 0 24 24" fill="none" xmlns="http://www.w3.org/2000/svg">
<g id="Iconly/Regular/Light/Search">
<g id="Search">
<path id="Ellipse_739 (Stroke)" fill-rule="evenodd" clip-rule="evenodd" d="M11.6264 3.47401C7.14199 3.47401 3.50668 7.029 3.50668 11.4143C3.50668 15.7996 7.14199 19.3546 11.6264 19.3546C16.1108 19.3546 19.7461 15.7996 19.7461 11.4143C19.7461 7.029 16.1108 3.47401 11.6264 3.47401ZM2.02832 11.4143C2.02832 6.23057 6.32551 2.02832 11.6264 2.02832C16.9272 2.02832 21.2244 6.23057 21.2244 11.4143C21.2244 16.598 16.9272 20.8003 11.6264 20.8003C6.32551 20.8003 2.02832 16.598 2.02832 11.4143Z" fill="#767676"/>
<path id="Line_181 (Stroke)" fill-rule="evenodd" clip-rule="evenodd" d="M17.2646 17.3794C17.5529 17.0967 18.021 17.0961 18.31 17.378L21.7832 20.7657C22.0722 21.0476 22.0728 21.5053 21.7845 21.7879C21.4963 22.0706 21.0282 22.0712 20.7392 21.7893L17.266 18.4016C16.977 18.1197 16.9764 17.662 17.2646 17.3794Z" fill="#767676"/>
</g>
</g>
</svg>
