<svg width="14" height="14" viewBox="0 0 14 14" fill="none" xmlns="http://www.w3.org/2000/svg">
<g clip-path="url(#clip0_1010_4644)">
<path fill-rule="evenodd" clip-rule="evenodd" d="M2.6775 0.0195326C2.38189 0.0192402 2.09108 0.0942664 1.8325 0.237533C1.56733 0.372694 1.34393 0.57747 1.18627 0.829912C1.0286 1.08235 0.942607 1.37294 0.9375 1.67053V12.3475C0.942607 12.6451 1.0286 12.9357 1.18627 13.1882C1.34393 13.4406 1.56733 13.6454 1.8325 13.7805C2.09576 13.9268 2.39247 14.0022 2.69361 13.9994C2.99475 13.9966 3.29001 13.9156 3.5505 13.7645L12.1805 8.42653C12.4468 8.29232 12.6706 8.08677 12.827 7.83281C12.9833 7.57885 13.066 7.28645 13.0659 6.98822C13.0658 6.69 12.9829 6.39766 12.8264 6.1438C12.6699 5.88995 12.4459 5.68456 12.1795 5.55053L3.5495 0.252533C3.28439 0.0995167 2.9836 0.0191459 2.6775 0.0195326Z" fill="black"/>
</g>
<defs>
<clipPath id="clip0_1010_4644">
<rect width="14" height="14" fill="white"/>
</clipPath>
</defs>
</svg>
