<svg width="40" height="40" viewBox="0 0 40 40" fill="none" xmlns="http://www.w3.org/2000/svg">
<rect width="40" height="40" rx="20" fill="#333333"/>
<path d="M9.55819 25.7708C9.38132 25.5941 9.24093 25.3837 9.14513 25.152C9.04932 24.9203 9 24.6717 9 24.4207C9 24.1697 9.04932 23.9211 9.14513 23.6894C9.24093 23.4577 9.38132 23.2473 9.55819 23.0706L18.9935 13.5625C19.1689 13.3843 19.3777 13.2428 19.6076 13.1462C19.8376 13.0497 20.0842 13 20.3333 13C20.5824 13 20.8291 13.0497 21.0591 13.1462C21.289 13.2428 21.4977 13.3843 21.6731 13.5625L31.1085 23.0706C31.2853 23.2473 31.4257 23.4577 31.5215 23.6894C31.6173 23.9211 31.6667 24.1697 31.6667 24.4207C31.6667 24.6717 31.6173 24.9203 31.5215 25.152C31.4257 25.3837 31.2853 25.5941 31.1085 25.7708C30.933 25.9491 30.7243 26.0905 30.4944 26.1871C30.2644 26.2836 30.0178 26.3333 29.7687 26.3333C29.5195 26.3333 29.2729 26.2836 29.0429 26.1871C28.813 26.0905 28.6043 25.9491 28.4288 25.7708L20.3333 17.5939L12.2378 25.7708C12.0624 25.9491 11.8537 26.0905 11.6237 26.1871C11.3938 26.2836 11.1471 26.3333 10.898 26.3333C10.6489 26.3333 10.4022 26.2836 10.1723 26.1871C9.94233 26.0905 9.73362 25.9491 9.55819 25.7708Z" fill="white"/>
</svg>
