<svg width="40" height="40" viewBox="0 0 40 40" fill="none" xmlns="http://www.w3.org/2000/svg">
<rect width="40" height="40" rx="10" fill="white"/>
<path d="M29.1564 27.6397C26.8198 24.5925 24.4905 21.5454 22.1539 18.4982C21.8107 18.8559 21.4748 19.2063 21.1316 19.564C23.4171 22.5468 25.6953 25.5295 27.9808 28.5051C28.0247 28.5624 28.0612 28.6125 28.1049 28.6697H25.155L19.5471 21.2092C19.2039 21.5668 18.868 21.9173 18.5248 22.2749C19.8683 24.0632 21.2119 25.8514 22.5628 27.6397C23.1835 28.4623 23.7968 29.2777 24.4102 30.1002H31.033C30.4051 29.2777 29.7771 28.4623 29.1564 27.6397ZM12.1356 11.3382H14.8373L17.1156 14.3138C18.1451 15.6585 19.182 17.0104 20.2116 18.3552C20.5474 17.9975 20.8907 17.647 21.2265 17.2894C19.3427 14.8288 17.4514 12.361 15.5675 9.90039H9.22949C11.0112 12.2752 12.8001 14.6499 14.5818 17.0247C15.5967 18.3695 16.6044 19.7142 17.6194 21.0589C17.9552 20.7013 18.2985 20.3508 18.6417 19.9932L12.1356 11.3382Z" fill="black"/>
<path d="M19.5546 21.2092C19.2115 21.5668 18.8755 21.9172 18.5323 22.275C16.8164 24.0631 15.1005 25.8514 13.3918 27.6396C12.6032 28.4622 11.8219 29.2777 11.0332 30.1002H8.9668C9.75546 29.2777 10.5367 28.4622 11.3253 27.6396C12.4133 26.5023 13.5086 25.3578 14.5965 24.2205C15.6042 23.1691 16.612 22.1176 17.6269 21.059C17.9628 20.7012 18.306 20.3508 18.6492 19.9932L19.5546 21.2092Z" fill="black"/>
<path d="M30.3829 9.90039C27.6374 12.7687 24.8919 15.6299 22.1464 18.4982C21.8032 18.8559 21.4673 19.2063 21.1241 19.564C20.8174 19.1635 20.5108 18.7628 20.2041 18.3623C20.5399 18.0046 20.8831 17.6542 21.219 17.2966C23.5775 14.8359 25.936 12.3682 28.2946 9.90757H30.3829V9.90039Z" fill="black"/>
</svg>
