<svg width="28" height="28" viewBox="0 0 28 28" fill="none" xmlns="http://www.w3.org/2000/svg">
<path fill-rule="evenodd" clip-rule="evenodd" d="M18.6079 23.997H9.37852C5.98833 23.997 3.3875 22.8448 4.12626 18.2072L4.98645 11.9223C5.44185 9.60826 7.01045 8.72266 8.38676 8.72266H19.6402C21.0367 8.72266 22.5142 9.67492 23.0405 11.9223L23.9007 18.2072C24.5281 22.321 21.9981 23.997 18.6079 23.997Z" fill="#767676" stroke="#767676" stroke-width="1.56075" stroke-linecap="round" stroke-linejoin="round"/>
<path d="M18.761 8.49473C18.761 6.01238 16.6224 4.00004 13.9844 4.00004V4.00004C12.714 3.99498 11.4939 4.46628 10.5937 5.30975C9.69352 6.15322 9.18749 7.29936 9.1875 8.49473H9.1875" stroke="#767676" stroke-width="1.56075" stroke-linecap="round" stroke-linejoin="round"/>
<path d="M17.2615 13.1836H17.2109" stroke="#333333" stroke-width="1.56075" stroke-linecap="round" stroke-linejoin="round"/>
<path d="M10.8165 13.1832H10.7659" stroke="#333333" stroke-width="1.56075" stroke-linecap="round" stroke-linejoin="round"/>
</svg>
