<svg width="36" height="36" viewBox="0 0 36 36" fill="none" xmlns="http://www.w3.org/2000/svg">
<mask id="path-1-inside-1_1924_21678" fill="white">
<path fill-rule="evenodd" clip-rule="evenodd" d="M4.27411 6.44505C1.24195 9.70512 1.24196 14.9908 4.27416 18.2509L8.5984 22.9002L8.62049 22.9242L16.3985 31.2868C17.2829 32.2377 18.7168 32.2377 19.6012 31.2869L23.4513 27.1474L23.4907 27.1053L31.7259 18.2511C34.7581 14.991 34.758 9.70527 31.7258 6.44513C28.6936 3.18498 23.7774 3.18496 20.7452 6.44508L17.9999 9.39672L15.2546 6.44509C12.2224 3.18499 7.30628 3.18497 4.27411 6.44505Z"/>
</mask>
<path d="M4.27416 18.2509L2.62662 19.7832L2.62662 19.7832L4.27416 18.2509ZM4.27411 6.44505L5.92165 7.9774L5.92165 7.9774L4.27411 6.44505ZM8.5984 22.9002L10.2563 21.379L10.2511 21.3734L10.2459 21.3678L8.5984 22.9002ZM8.62049 22.9242L6.96261 24.4454L6.96777 24.451L6.97296 24.4566L8.62049 22.9242ZM16.3985 31.2868L14.7509 32.8192L14.7509 32.8192L16.3985 31.2868ZM19.6012 31.2869L17.9536 29.7545L17.9536 29.7545L19.6012 31.2869ZM23.4513 27.1474L21.8091 25.6092L21.8037 25.615L23.4513 27.1474ZM23.4907 27.1053L25.1328 28.6434L25.1382 28.6377L23.4907 27.1053ZM31.7259 18.2511L33.3734 19.7835L33.3734 19.7835L31.7259 18.2511ZM31.7258 6.44513L30.0783 7.97749L30.0783 7.97749L31.7258 6.44513ZM20.7452 6.44508L19.0976 4.91272L19.0976 4.91272L20.7452 6.44508ZM17.9999 9.39672L16.3524 10.9291L17.9999 12.7004L19.6474 10.9291L17.9999 9.39672ZM15.2546 6.44509L13.6071 7.97745L13.6071 7.97745L15.2546 6.44509ZM5.92169 16.7185C3.69278 14.3221 3.69278 10.3738 5.92165 7.9774L2.62658 4.91269C-1.20889 9.03644 -1.20885 15.6595 2.62662 19.7832L5.92169 16.7185ZM10.2459 21.3678L5.92169 16.7185L2.62662 19.7832L6.95087 24.4325L10.2459 21.3678ZM10.2784 21.4031L10.2563 21.379L6.94052 24.4213L6.96261 24.4454L10.2784 21.4031ZM18.046 29.7545L10.268 21.3919L6.97296 24.4566L14.7509 32.8192L18.046 29.7545ZM17.9536 29.7545C17.9409 29.7682 17.9395 29.765 17.9528 29.7592C17.9648 29.754 17.9812 29.75 17.9998 29.75C18.0185 29.75 18.0349 29.754 18.0469 29.7592C18.0601 29.765 18.0587 29.7681 18.046 29.7545L14.7509 32.8192C16.5253 34.7269 19.4743 34.727 21.2487 32.8192L17.9536 29.7545ZM21.8037 25.615L17.9536 29.7545L21.2487 32.8192L25.0988 28.6797L21.8037 25.615ZM21.8485 25.5672L21.8091 25.6092L25.0934 28.6855L25.1328 28.6434L21.8485 25.5672ZM30.0783 16.7188L21.8431 25.5729L25.1382 28.6377L33.3734 19.7835L30.0783 16.7188ZM30.0783 7.97749C32.3072 10.374 32.3072 14.3223 30.0783 16.7188L33.3734 19.7835C37.2089 15.6597 37.2089 9.03657 33.3734 4.91277L30.0783 7.97749ZM22.3927 7.97744C24.5349 5.67419 27.936 5.67418 30.0783 7.97749L33.3734 4.91277C29.4512 0.69578 23.0198 0.695733 19.0976 4.91272L22.3927 7.97744ZM19.6474 10.9291L22.3927 7.97744L19.0976 4.91272L16.3524 7.86436L19.6474 10.9291ZM13.6071 7.97745L16.3524 10.9291L19.6474 7.86436L16.9021 4.91273L13.6071 7.97745ZM5.92165 7.9774C8.06384 5.67419 11.4648 5.67419 13.6071 7.97745L16.9021 4.91273C12.98 0.695789 6.54872 0.695739 2.62658 4.91269L5.92165 7.9774Z" fill="#F86666" mask="url(#path-1-inside-1_1924_21678)"/>
</svg>
