<?xml version="1.0" standalone="no"?>
<!DOCTYPE svg PUBLIC "-//W3C//DTD SVG 20010904//EN"
 "http://www.w3.org/TR/2001/REC-SVG-20010904/DTD/svg10.dtd">
<svg version="1.0" xmlns="http://www.w3.org/2000/svg"
 width="100.000000pt" height="100.000000pt" viewBox="0 0 100.000000 100.000000"
 preserveAspectRatio="xMidYMid meet">
<metadata>
Created by potrace 1.14, written by Peter Selinger 2001-2017
</metadata>
<g transform="translate(0.000000,100.000000) scale(0.100000,-0.100000)"
fill="#000000" stroke="none">
<path d="M312 690 c-25 -24 -28 -48 -8 -93 20 -47 41 -71 54 -63 9 5 7 16 -6
39 -24 46 -30 70 -20 89 19 39 129 -15 228 -113 31 -31 35 -32 38 -14 9 42
-172 175 -238 175 -14 0 -36 -9 -48 -20z"/>
<path d="M580 688 c-46 -24 -64 -48 -35 -48 8 0 26 6 38 14 60 38 103 22 87
-33 -12 -45 -57 -115 -107 -171 -38 -42 -42 -51 -28 -56 39 -15 175 179 175
250 0 29 -35 66 -63 66 -13 0 -43 -10 -67 -22z"/>
<path d="M400 553 c-66 -74 -97 -127 -106 -179 -12 -76 46 -104 132 -65 23 10
45 24 48 30 13 21 -20 22 -65 2 -55 -26 -66 -26 -79 -1 -8 16 -6 31 10 68 21
46 88 135 122 160 16 12 15 42 -2 42 -5 0 -32 -26 -60 -57z"/>
<path d="M460 540 c-23 -23 -24 -33 -10 -60 24 -46 91 -44 103 2 17 62 -49
102 -93 58z m60 -41 c0 -12 -7 -19 -19 -19 -25 0 -35 27 -13 39 21 12 32 5 32
-20z"/>
<path d="M400 462 c0 -48 181 -172 251 -172 31 0 61 41 56 77 -8 59 -67 135
-67 86 0 -11 4 -23 9 -29 17 -18 29 -70 20 -86 -19 -35 -134 20 -214 101 -43
45 -55 50 -55 23z"/>
</g>
</svg>
