<svg width="24" height="24" viewBox="0 0 24 24" fill="none" xmlns="http://www.w3.org/2000/svg">
<path d="M4.96923 20.812L2.71558 18.008C2.2393 17.421 1.99584 16.783 2.00005 16.0157L2.01234 4.3043C2.01234 4.15791 2.0237 4.00941 2.05029 3.86585C2.15772 3.29886 2.52932 2.94526 3.1288 2.89205L6.09633 2.66893L10.8243 2.33266L15.3458 2.01019C16.1443 1.94937 16.8338 2.16205 17.4834 2.61784C18.8147 3.55221 20.1709 4.45352 21.521 5.36172C21.8561 5.58749 22.0007 5.87002 22 6.274L21.9936 19.6871V19.8638C21.9771 20.6822 21.5683 21.1235 20.7217 21.1891C19.7707 21.263 18.8176 21.3108 17.865 21.3666L12.1276 21.7008L7.02946 21.9937C6.2769 22.042 5.68457 21.8155 5.27135 21.1919C5.1861 21.062 5.07739 20.946 4.96923 20.812ZM6.14362 12.6808V18.6013L6.14509 19.7056C6.15499 20.2008 6.40652 20.4475 6.91983 20.4757C7.04871 20.4826 7.17906 20.4784 7.30867 20.4708L11.6062 20.2265L19.8129 19.774C20.3244 19.7465 20.5607 19.5302 20.6085 19.0414C20.6179 18.9535 20.615 18.8646 20.615 18.7762L20.6157 7.37686C20.6157 7.31056 20.6179 7.24426 20.6137 7.17796C20.5829 6.7243 20.3808 6.53919 19.9134 6.56324L15.6838 6.7982C13.7027 6.90935 11.7217 7.0212 9.7407 7.13376L6.76951 7.30578C6.39075 7.32912 6.21952 7.48665 6.16232 7.84378C6.14878 7.93849 6.14278 8.03406 6.14436 8.12966L6.14362 12.6808ZM16.6248 3.35879C16.2661 3.17103 15.8765 3.1088 15.4754 3.13019C14.8588 3.16272 14.2423 3.2117 13.6256 3.25466L4.83522 3.87062C4.56957 3.88918 4.30247 3.90775 4.04031 3.95354C3.95231 3.96874 3.84121 4.05431 3.81408 4.13175C3.79391 4.1862 3.88283 4.29617 3.94791 4.35628C4.06836 4.46731 4.20713 4.56048 4.3384 4.66072C4.64987 4.89763 4.98133 5.11368 5.26714 5.37552C5.80923 5.87196 6.44007 5.9867 7.16274 5.93632L12.8523 5.59227L18.9773 5.23797C19.0332 5.23532 19.0891 5.2187 19.2121 5.1966C19.0998 5.08398 19.0345 4.9977 18.9494 4.93688C18.6494 4.72316 18.3464 4.51323 18.0407 4.30713C17.5709 3.98796 17.099 3.67184 16.6248 3.35879Z" fill="black"/>
<path d="M6.14343 12.6076L6.14416 8.07862C6.14416 7.98315 6.1471 7.88662 6.16213 7.79274C6.21933 7.43561 6.39056 7.27826 6.76931 7.25475L9.7405 7.08273L15.6836 6.74717L19.913 6.5122C20.3807 6.48816 20.5827 6.67379 20.6133 7.12692C20.6177 7.19322 20.6155 7.25952 20.6155 7.32582L20.6148 18.7252L20.6083 18.9904C20.5605 19.4792 20.3242 19.6954 19.8127 19.723L11.606 20.1754L7.30848 20.4198L6.91982 20.4247C6.40632 20.3964 6.1548 20.1498 6.1449 19.6553L6.14343 18.5503V12.6076ZM14.5336 12.6193L12.1745 9.15319C12.0922 9.03227 12.0114 8.99231 11.8596 9.00822L10.854 9.07364L9.00426 9.20429C8.5496 9.24442 8.27461 9.65671 8.40056 10.0842L9.38026 10.165V17.8191L8.71295 18.0006C8.41706 18.0848 8.29038 18.3252 8.38993 18.6325L10.6463 18.5075L11.5351 18.4372C11.9182 18.3763 12.1245 18.1499 12.176 17.7804L10.9422 17.509V11.7519L11.0339 11.8757L13.8696 16.1457C14.2864 16.7693 14.7145 17.3858 15.1536 17.995C15.4666 18.4281 15.9278 18.5607 16.4463 18.4529C16.7707 18.3861 17.0822 18.2589 17.4001 18.1601C17.5657 18.1083 17.6221 18.013 17.6214 17.8341L17.6159 9.96664C17.6159 9.50679 17.6159 9.50679 18.0876 9.41503C18.5646 9.32239 18.6841 9.1387 18.5752 8.64702L15.7245 8.8141C15.4143 8.83549 15.1795 9.08548 15.1323 9.37631C15.1092 9.51651 15.1393 9.59377 15.3133 9.6035L16.1764 9.69543V15.031C15.6297 14.2267 15.0821 13.4231 14.5336 12.62V12.6193ZM16.6402 3.31536C17.1082 3.62701 17.5748 3.94054 18.0401 4.25592C18.3459 4.46207 18.6489 4.67207 18.949 4.88585C19.0341 4.94666 19.0994 5.03294 19.2118 5.14556L18.9769 5.18693L12.8519 5.54123L7.16236 5.88528C6.43969 5.93567 5.80886 5.82093 5.26676 5.32448C4.98095 5.06282 4.64949 4.8466 4.33784 4.60969C4.20676 4.50945 4.06798 4.41627 3.94753 4.30507C3.88245 4.24496 3.79354 4.13534 3.8137 4.08054C3.84083 4.00328 3.95266 3.91771 4.03993 3.9025C4.30209 3.85689 4.5692 3.83815 4.83484 3.81958L13.6254 3.20362L15.4752 3.07916C15.8761 3.05794 16.2657 3.11982 16.6402 3.31536Z" fill="white"/>
<path d="M14.5438 12.6323L16.1766 15.0309V9.6952L15.3137 9.60327C15.1396 9.59372 15.1095 9.51646 15.1324 9.37626C15.1797 9.08543 15.4147 8.83544 15.7246 8.81405L18.5755 8.64697C18.6844 9.13847 18.5649 9.32234 18.0878 9.4148C17.616 9.50603 17.616 9.50603 17.616 9.96659L17.6216 17.834C17.6224 18.013 17.5659 18.1083 17.4004 18.1601L16.4465 18.4528C15.9281 18.56 15.4668 18.4281 15.154 17.9949C14.7151 17.3856 14.287 16.7691 13.87 16.1456L11.0339 11.8755C11.014 11.8451 10.991 11.8168 10.9423 11.7519V17.5089L12.1763 17.7803C12.1247 18.1498 11.9185 18.3761 11.5353 18.4371C11.2431 18.4832 10.9432 18.4901 10.6466 18.5075L8.39018 18.6325C8.29063 18.3252 8.41731 18.0847 8.7132 18.0006L9.38051 17.819V10.165L8.40081 10.0842C8.27486 9.65666 8.54985 9.24437 9.00451 9.20424C9.61975 9.1489 10.2378 9.11513 10.8543 9.07376C11.1894 9.05166 11.526 9.04335 11.8598 9.00817C12.0116 8.99226 12.0927 9.03221 12.1748 9.15314L14.5438 12.6323Z" fill="black"/>
</svg>
