<svg width="38" height="38" viewBox="0 0 38 38" fill="none" xmlns="http://www.w3.org/2000/svg">
<g id="Iconly/Regular/Light/Lock">
<g id="Lock">
<path id="Stroke 1 (Stroke)" fill-rule="evenodd" clip-rule="evenodd" d="M9.95112 11.5234C9.97295 6.8881 14.0325 3.14819 19.0194 3.16706C24.0062 3.16846 28.0497 6.92642 28.0497 11.5603V14.9597C28.0497 15.6156 27.4775 16.1472 26.7716 16.1472C26.0658 16.1472 25.4936 15.6156 25.4936 14.9597V11.5603C25.4936 8.23723 22.593 5.54206 19.0166 5.54206H19.011C15.4356 5.52752 12.5243 8.20773 12.5072 11.5314V14.9597C12.5072 15.6156 11.935 16.1472 11.2291 16.1472C10.5233 16.1472 9.95111 15.6156 9.95111 14.9597L9.95112 11.5234Z" fill="white"/>
<path id="Stroke 3 (Stroke)" fill-rule="evenodd" clip-rule="evenodd" d="M12.6039 16.3555C9.79153 16.3555 7.51121 18.4932 7.51121 21.1324V27.8676C7.51121 30.5068 9.79153 32.6445 12.6039 32.6445H25.3961C28.2085 32.6445 30.4888 30.5068 30.4888 27.8676V21.1324C30.4888 18.4932 28.2085 16.3555 25.3961 16.3555H12.6039ZM5 21.1324C5 17.1919 8.40506 14 12.6039 14H25.3961C29.5949 14 33 17.1919 33 21.1324V27.8676C33 31.8081 29.5949 35 25.3961 35H12.6039C8.40506 35 5 31.8081 5 27.8676V21.1324Z" fill="white"/>
<path id="Stroke 5 (Stroke)" fill-rule="evenodd" clip-rule="evenodd" d="M19.0003 21.3008C19.7062 21.3008 20.2783 21.8324 20.2783 22.4883V26.0049C20.2783 26.6607 19.7062 27.1924 19.0003 27.1924C18.2945 27.1924 17.7223 26.6607 17.7223 26.0049V22.4883C17.7223 21.8324 18.2945 21.3008 19.0003 21.3008Z" fill="white"/>
</g>
</g>
</svg>
