<svg width="30" height="30" viewBox="0 0 30 30" fill="none" xmlns="http://www.w3.org/2000/svg">
<path fill-rule="evenodd" clip-rule="evenodd" d="M23.7591 2.62879C22.154 3.10457 20.4117 4.1 19.0785 4.99514C18.5524 5.34839 17.8404 5.20697 17.4882 4.67928C17.136 4.15159 17.277 3.43745 17.8031 3.08421C19.2052 2.1428 21.1741 0.997115 23.1093 0.423503C24.9772 -0.130172 27.3119 -0.278216 28.8042 1.5624C30.2165 3.30434 29.9463 5.70005 29.3707 7.60104C28.7739 9.57171 27.7166 11.4629 26.9176 12.6219C26.8608 12.7093 26.8012 12.8013 26.7389 12.8974C25.2514 15.1932 22.2054 19.8942 18.5776 22.7646C18.0805 23.1579 17.3597 23.0725 16.9676 22.574C16.5755 22.0754 16.6605 21.3524 17.1576 20.9591C20.4777 18.3322 23.3453 13.9118 24.8552 11.5843C24.9069 11.5047 24.9569 11.4276 25.0054 11.353L25.0143 11.3392L25.0237 11.3256C25.728 10.3067 26.6648 8.62389 27.1769 6.93276C27.7125 5.16405 27.6646 3.80165 27.0254 3.01322C26.4661 2.32347 25.4315 2.13309 23.7591 2.62879Z" fill="black"/>
<path fill-rule="evenodd" clip-rule="evenodd" d="M6.50092 27.3746C8.27852 26.855 10.1853 25.8116 11.4975 24.9305C12.0237 24.5772 12.7357 24.7187 13.0879 25.2463C13.4401 25.774 13.2991 26.4882 12.773 26.8414C11.3499 27.7969 9.22523 28.9735 7.14238 29.5823C6.10201 29.8864 5.00049 30.0704 3.9684 29.9672C2.91348 29.8618 1.88224 29.4472 1.1315 28.5212C-0.280775 26.7792 -0.0106258 24.3835 0.565016 22.4825C1.16178 20.5118 2.21911 18.6206 3.01821 17.4616C4.47173 15.2257 7.66844 10.7089 11.4252 7.73638C11.9223 7.34308 12.6431 7.42841 13.0353 7.92696C13.4274 8.42551 13.3423 9.1485 12.8453 9.5418C9.38844 12.277 6.35306 16.5404 4.93033 18.7305L4.92134 18.7444L4.91197 18.7579C4.20773 19.7768 3.27089 21.4597 2.7588 23.1508C2.22321 24.9195 2.27112 26.2819 2.91034 27.0704C3.18535 27.4096 3.58935 27.6184 4.19581 27.679C4.82509 27.7419 5.61106 27.6347 6.50092 27.3746Z" fill="black"/>
<path fill-rule="evenodd" clip-rule="evenodd" d="M27.2965 23.7673C26.8173 22.1509 25.8163 20.3898 24.9333 19.0429C24.5855 18.5123 24.7325 17.7994 25.2615 17.4504C25.7906 17.1014 26.5014 17.2486 26.8492 17.7792C27.7688 19.1819 28.9179 21.1679 29.4941 23.1113C30.0485 24.981 30.2092 27.3454 28.3169 28.8145C26.5505 30.1859 24.1581 29.8815 22.2589 29.2795C20.2902 28.6555 18.4075 27.5749 17.2557 26.762C15.0561 25.298 10.7262 22.3353 7.78997 18.5412C7.40182 18.0396 7.49263 17.3173 7.99281 16.9278C8.49299 16.5384 9.21313 16.6293 9.60128 17.1308C12.2876 20.602 16.3337 23.3885 18.537 24.8546L18.5506 24.8637L18.5639 24.8731C19.5774 25.5901 21.2557 26.5497 22.9503 27.0868C24.7222 27.6485 26.104 27.625 26.9138 26.9962C27.5977 26.4653 27.7976 25.4574 27.2965 23.7673Z" fill="black"/>
<path fill-rule="evenodd" clip-rule="evenodd" d="M2.70614 6.13184C3.18608 7.76544 4.18806 9.54343 5.06853 10.8867C5.41626 11.4171 5.26925 12.1301 4.74016 12.4791C4.21108 12.8282 3.50028 12.681 3.15255 12.1506C2.23074 10.7443 1.08248 8.74206 0.506859 6.78277C-0.045549 4.90249 -0.208844 2.51922 1.68503 1.04881C3.45154 -0.322706 5.84391 -0.0185953 7.74308 0.583195C9.71174 1.20701 11.5943 2.28747 12.7461 3.10023C14.956 4.5712 19.2794 7.59672 22.2119 11.3863C22.6 11.8878 22.5091 12.6101 22.0089 12.9996C21.5087 13.3891 20.7885 13.2983 20.4004 12.7967C17.7112 9.32156 13.6571 6.46652 11.4646 5.00774L11.451 4.99868L11.4376 4.98922C10.4242 4.27237 8.746 3.31292 7.05143 2.77596C5.27961 2.21452 3.89785 2.23815 3.08795 2.86696C2.4054 3.39689 2.20299 4.41922 2.70614 6.13184Z" fill="black"/>
<path fill-rule="evenodd" clip-rule="evenodd" d="M14.9897 16.6168C16.0075 16.6168 16.8 15.8012 16.8 14.8351C16.8 13.8691 16.0075 13.0535 14.9897 13.0535C13.972 13.0535 13.1795 13.8691 13.1795 14.8351C13.1795 15.8012 13.972 16.6168 14.9897 16.6168ZM14.9897 18.9164C17.2557 18.9164 19.0927 17.0891 19.0927 14.8351C19.0927 12.5811 17.2557 10.7539 14.9897 10.7539C12.7237 10.7539 10.8867 12.5811 10.8867 14.8351C10.8867 17.0891 12.7237 18.9164 14.9897 18.9164Z" fill="black"/>
</svg>
