<svg width="162" height="30" viewBox="0 0 162 30" fill="none" xmlns="http://www.w3.org/2000/svg">
<path d="M114.929 13.2577V0.394531H123.144V2.54707H117.607V5.5155H122.294V7.66805H117.607V11.1052H123.343V13.2577H114.929Z" fill="white"/>
<path d="M107.889 13.4959C106.996 13.4959 106.121 13.3339 105.265 13.0099C104.408 12.6858 103.654 12.2229 103.003 11.6212L104.541 9.85051C105.012 10.2787 105.548 10.6259 106.152 10.8921C106.767 11.1467 107.364 11.274 107.943 11.274C108.643 11.274 109.174 11.1409 109.535 10.8747C109.897 10.6085 110.078 10.2498 110.078 9.79843C110.078 9.47439 109.988 9.21979 109.807 9.03462C109.638 8.83789 109.403 8.66429 109.101 8.51385C108.8 8.3634 108.45 8.21295 108.052 8.06251L106.278 7.31606C105.832 7.14247 105.398 6.91101 104.975 6.62169C104.565 6.3208 104.221 5.94468 103.944 5.49334C103.679 5.042 103.546 4.50387 103.546 3.87894C103.546 3.17299 103.745 2.54228 104.143 1.98678C104.541 1.43129 105.09 0.991518 105.79 0.66748C106.489 0.331868 107.286 0.164062 108.178 0.164062C108.974 0.164062 109.741 0.308723 110.476 0.598043C111.212 0.887363 111.852 1.2982 112.395 1.83055L111.037 3.4276C110.615 3.09198 110.175 2.8316 109.716 2.64643C109.258 2.46127 108.745 2.36868 108.178 2.36868C107.599 2.36868 107.135 2.4902 106.785 2.73323C106.447 2.96468 106.278 3.29451 106.278 3.7227C106.278 4.0236 106.375 4.27241 106.568 4.46915C106.761 4.66589 107.014 4.83948 107.328 4.98993C107.641 5.1288 107.985 5.27346 108.359 5.42391L110.115 6.10092C110.657 6.30923 111.128 6.56962 111.526 6.88208C111.936 7.19455 112.25 7.57066 112.467 8.01043C112.696 8.4502 112.811 8.98255 112.811 9.60748C112.811 10.3018 112.612 10.9441 112.214 11.5344C111.828 12.1246 111.267 12.5991 110.531 12.9578C109.807 13.3166 108.926 13.4959 107.889 13.4959Z" fill="white"/>
<path d="M92.1975 13.2577V0.394531H96.8481C97.8011 0.394531 98.6577 0.516046 99.4177 0.759075C100.178 0.990531 100.781 1.39558 101.227 1.97422C101.674 2.54129 101.897 3.31667 101.897 4.30036C101.897 5.24933 101.674 6.03049 101.227 6.64385C100.781 7.24564 100.178 7.69119 99.4177 7.98051C98.6577 8.25826 97.8011 8.39713 96.8481 8.39713H94.8757V13.2577H92.1975ZM94.8757 6.3661H96.6128C97.4814 6.3661 98.1389 6.19251 98.5853 5.84533C99.0437 5.49814 99.2729 4.98315 99.2729 4.30036C99.2729 3.60599 99.0437 3.12572 98.5853 2.85954C98.1389 2.58179 97.4814 2.44292 96.6128 2.44292H94.8757V6.3661ZM99.472 13.2577L96.3595 7.73748L98.2414 6.14043L102.476 13.2577H99.472Z" fill="white"/>
<path d="M81.3181 13.2577V0.394531H89.5335V2.54707H83.9963V5.5155H88.683V7.66805H83.9963V11.1052H89.7326V13.2577H81.3181Z" fill="white"/>
<path d="M72.7195 13.2577L68.6299 0.394531H71.4528L73.2081 6.66121C73.4252 7.36715 73.6122 8.05574 73.769 8.72696C73.9379 9.38661 74.1249 10.081 74.33 10.8101H74.4205C74.6376 10.081 74.8306 9.38661 74.9995 8.72696C75.1684 8.05574 75.3554 7.36715 75.5605 6.66121L77.2977 0.394531H80.012L75.9224 13.2577H72.7195Z" fill="white"/>
<path d="M64.646 13.2577V0.394531H67.3242V13.2577H64.646Z" fill="white"/>
<path d="M51.3474 13.2577V0.394531H54.0799L57.9704 7.25142L59.3276 10.0289H59.4181C59.3457 9.35768 59.2673 8.6228 59.1828 7.82428C59.0984 7.02576 59.0562 6.26195 59.0562 5.53286V0.394531H61.5895V13.2577H58.8571L55.0027 6.38346L53.6456 3.62335H53.5551C53.6154 4.31772 53.6878 5.05259 53.7722 5.82797C53.8567 6.60335 53.8989 7.36137 53.8989 8.10203V13.2577H51.3474Z" fill="white"/>
<path d="M43.2216 13.5007C42.3892 13.5007 41.6533 13.3908 41.0139 13.1709C40.3745 12.9395 39.8256 12.5807 39.3672 12.0946C38.9208 11.6086 38.583 10.9837 38.3538 10.2199C38.1246 9.45605 38.01 8.54179 38.01 7.47709V0.394531H40.6701V7.70276C40.6701 8.59387 40.7726 9.29981 40.9777 9.82059C41.1828 10.3414 41.4723 10.7175 41.8463 10.9489C42.2323 11.1688 42.6907 11.2788 43.2216 11.2788C43.7524 11.2788 44.2108 11.1688 44.5968 10.9489C44.9829 10.7175 45.2784 10.3414 45.4835 9.82059C45.7007 9.29981 45.8092 8.59387 45.8092 7.70276V0.394531H48.3788V7.47709C48.3788 8.54179 48.2642 9.45605 48.035 10.2199C47.8058 10.9837 47.468 11.6086 47.0216 12.0946C46.5753 12.5807 46.0324 12.9395 45.393 13.1709C44.7536 13.3908 44.0298 13.5007 43.2216 13.5007Z" fill="white"/>
<path d="M148.16 29.8333V18.7312H144.363V16.5H154.677V18.7312H150.862V29.8333H148.16Z" fill="white"/>
<path d="M132.059 29.8333V16.5H134.815L138.74 23.6075L140.109 26.4865H140.2C140.127 25.7907 140.048 25.029 139.963 24.2013C139.878 23.3736 139.835 22.5819 139.835 21.8261V16.5H142.391V29.8333H139.634L135.746 22.7078L134.377 19.8468H134.286C134.346 20.5666 134.42 21.3283 134.505 22.132C134.59 22.9357 134.632 23.7215 134.632 24.4892V29.8333H132.059Z" fill="white"/>
<path d="M121.082 29.8333V16.5H129.37V18.7312H123.784V21.8081H128.512V24.0394H123.784V27.6021H129.571V29.8333H121.082Z" fill="white"/>
<path d="M105.776 29.8333V16.5H108.769L111.069 22.7618C111.216 23.1577 111.355 23.5775 111.489 24.0214C111.623 24.4532 111.757 24.8791 111.891 25.2989H111.982C112.128 24.8791 112.268 24.4532 112.402 24.0214C112.536 23.5775 112.664 23.1577 112.785 22.7618L115.049 16.5H118.043V29.8333H115.578V24.2733C115.578 23.8414 115.597 23.3676 115.633 22.8518C115.67 22.336 115.712 21.8201 115.761 21.3043C115.822 20.7765 115.877 20.3087 115.925 19.9008H115.852L114.739 23.0317L112.658 28.6278H111.106L109.007 23.0317L107.93 19.9008H107.857C107.905 20.3087 107.954 20.7765 108.003 21.3043C108.051 21.8201 108.094 22.336 108.13 22.8518C108.179 23.3676 108.204 23.8414 108.204 24.2733V29.8333H105.776Z" fill="white"/>
<path d="M92.3577 29.8333V16.5H95.1141L99.0389 23.6075L100.408 26.4865H100.499C100.426 25.7907 100.347 25.029 100.262 24.2013C100.177 23.3736 100.134 22.5819 100.134 21.8261V16.5H102.69V29.8333H99.9334L96.0451 22.7078L94.676 19.8468H94.5847C94.6456 20.5666 94.7186 21.3283 94.8038 22.132C94.889 22.9357 94.9316 23.7215 94.9316 24.4892V29.8333H92.3577Z" fill="white"/>
<path d="M86.5884 29.8333V16.5H89.2901V29.8333H86.5884Z" fill="white"/>
<path d="M73.4141 29.8333L77.7404 16.5H80.935L85.2613 29.8333H82.4136L80.4969 22.8878C80.29 22.192 80.0892 21.4723 79.8945 20.7285C79.7119 19.9728 79.5172 19.241 79.3103 18.5333H79.2373C79.0669 19.253 78.8783 19.9848 78.6714 20.7285C78.4767 21.4723 78.282 22.192 78.0873 22.8878L76.1523 29.8333H73.4141ZM76.0975 26.4145V24.3453H82.5231V26.4145H76.0975Z" fill="white"/>
<path d="M67.6058 29.8333V18.7312H63.8088V16.5H74.1227V18.7312H70.3075V29.8333H67.6058Z" fill="white"/>
<path d="M53.199 29.8333V16.5H57.8904C58.8518 16.5 59.7159 16.626 60.4826 16.8779C61.2493 17.1178 61.8578 17.5376 62.308 18.1374C62.7583 18.7252 62.9835 19.5289 62.9835 20.5486C62.9835 21.5322 62.7583 22.342 62.308 22.9777C61.8578 23.6015 61.2493 24.0634 60.4826 24.3632C59.7159 24.6511 58.8518 24.7951 57.8904 24.7951H55.9007V29.8333H53.199ZM55.9007 22.6898H57.6531C58.5293 22.6898 59.1926 22.5099 59.6429 22.15C60.1053 21.7901 60.3365 21.2563 60.3365 20.5486C60.3365 19.8288 60.1053 19.331 59.6429 19.0551C59.1926 18.7672 58.5293 18.6233 57.6531 18.6233H55.9007V22.6898ZM60.5373 29.8333L57.3975 24.1113L59.296 22.4559L63.5676 29.8333H60.5373Z" fill="white"/>
<path d="M42.2236 29.8333V16.5H50.5112V18.7312H44.9253V21.8081H49.6533V24.0394H44.9253V27.6021H50.7121V29.8333H42.2236Z" fill="white"/>
<path d="M33.7533 29.8333V18.7312H29.9563V16.5H40.2702V18.7312H36.455V29.8333H33.7533Z" fill="white"/>
<path d="M17.6526 29.8333V16.5H20.409L24.3338 23.6075L25.7029 26.4865H25.7942C25.7211 25.7907 25.642 25.029 25.5569 24.2013C25.4717 23.3736 25.4291 22.5819 25.4291 21.8261V16.5H27.9847V29.8333H25.2283L21.34 22.7078L19.9709 19.8468H19.8797C19.9405 20.5666 20.0135 21.3283 20.0987 22.132C20.1839 22.9357 20.2265 23.7215 20.2265 24.4892V29.8333H17.6526Z" fill="white"/>
<path d="M6.67676 29.8333V16.5H14.9644V18.7312H9.37845V21.8081H14.1064V24.0394H9.37845V27.6021H15.1652V29.8333H6.67676Z" fill="white"/>
</svg>
