<svg width="44" height="44" viewBox="0 0 44 44" fill="none" xmlns="http://www.w3.org/2000/svg">
<rect x="2.5" y="2.5" width="39" height="39" rx="19.5" fill="white" stroke="#E9E9E9"/>
<path fill-rule="evenodd" clip-rule="evenodd" d="M22.7071 13.2929C22.3166 12.9024 21.6834 12.9024 21.2929 13.2929L15.2929 19.2929C14.9024 19.6834 14.9024 20.3166 15.2929 20.7071C15.6834 21.0976 16.3166 21.0976 16.7071 20.7071L21 16.4142V30C21 30.5523 21.4477 31 22 31C22.5523 31 23 30.5523 23 30V16.4142L27.2929 20.7071C27.6834 21.0976 28.3166 21.0976 28.7071 20.7071C29.0976 20.3166 29.0976 19.6834 28.7071 19.2929L22.7071 13.2929Z" fill="#1F1F1F"/>
</svg>
