<svg width="16" height="16" viewBox="0 0 16 16" fill="none" xmlns="http://www.w3.org/2000/svg">
<path d="M5.25312 2.29551C5.33267 2.20187 5.42732 2.12755 5.53159 2.07683C5.63587 2.02611 5.74772 2 5.86069 2C5.97365 2 6.0855 2.02611 6.18978 2.07683C6.29406 2.12755 6.3887 2.20187 6.46825 2.29551L10.7469 7.29069C10.8271 7.38356 10.8907 7.49405 10.9342 7.61579C10.9776 7.73754 11 7.86812 11 8C11 8.13188 10.9776 8.26246 10.9342 8.38421C10.8907 8.50595 10.8271 8.61644 10.7469 8.70931L6.46825 13.7045C6.3887 13.7981 6.29406 13.8724 6.18978 13.9232C6.0855 13.9739 5.97365 14 5.86069 14C5.74772 14 5.63587 13.9739 5.53159 13.9232C5.42732 13.8724 5.33267 13.7981 5.25312 13.7045C5.17292 13.6116 5.10925 13.5011 5.06581 13.3794C5.02237 13.2576 5 13.1271 5 12.9952C5 12.8633 5.02237 12.7327 5.06581 12.611C5.10925 12.4892 5.17292 12.3787 5.25312 12.2859L8.93274 8L5.25312 3.71414C5.17292 3.62127 5.10925 3.51077 5.06581 3.38903C5.02237 3.26729 5 3.13671 5 3.00483C5 2.87294 5.02237 2.74236 5.06581 2.62062C5.10925 2.49888 5.17292 2.38839 5.25312 2.29551Z" fill="black"/>
</svg>
