<svg width="24" height="24" viewBox="0 0 24 24" fill="none" xmlns="http://www.w3.org/2000/svg">
<path d="M15.5848 5.67251C15.481 5.56865 15.3575 5.48621 15.2214 5.42995C15.0854 5.37369 14.9394 5.34473 14.792 5.34473C14.6446 5.34473 14.4987 5.37369 14.3626 5.42995C14.2265 5.48621 14.103 5.56865 13.9992 5.67251L8.41623 11.2132C8.31157 11.3162 8.2285 11.4387 8.17181 11.5738C8.11512 11.7088 8.08594 11.8536 8.08594 11.9999C8.08594 12.1462 8.11512 12.2911 8.17181 12.4261C8.2285 12.5611 8.31157 12.6837 8.41623 12.7867L13.9992 18.3274C14.103 18.4312 14.2265 18.5137 14.3626 18.5699C14.4987 18.6262 14.6446 18.6551 14.792 18.6551C14.9394 18.6551 15.0854 18.6262 15.2214 18.5699C15.3575 18.5137 15.481 18.4312 15.5848 18.3274C15.6895 18.2243 15.7725 18.1018 15.8292 17.9667C15.8859 17.8317 15.9151 17.6869 15.9151 17.5406C15.9151 17.3943 15.8859 17.2495 15.8292 17.1144C15.7725 16.9794 15.6895 16.8568 15.5848 16.7538L10.7834 11.9999L15.5848 7.24605C15.6895 7.14304 15.7725 7.02048 15.8292 6.88544C15.8859 6.75041 15.9151 6.60557 15.9151 6.45928C15.9151 6.313 15.8859 6.16816 15.8292 6.03312C15.7725 5.89808 15.6895 5.77552 15.5848 5.67251Z" fill="white"/>
</svg>
