<svg width="28" height="28" viewBox="0 0 28 28" fill="none" xmlns="http://www.w3.org/2000/svg">
<g id="radioChecked">
<path id="Vector" d="M14.0005 23.5166C8.73647 23.5166 4.48047 19.2606 4.48047 13.9966C4.48047 8.73256 8.73647 4.47656 14.0005 4.47656C19.2645 4.47656 23.5205 8.73256 23.5205 13.9966C23.5205 19.2606 19.2645 23.5166 14.0005 23.5166ZM14.0005 5.59656C9.35247 5.59656 5.60047 9.34856 5.60047 13.9966C5.60047 18.6446 9.35247 22.3966 14.0005 22.3966C18.6485 22.3966 22.4005 18.6446 22.4005 13.9966C22.4005 9.34856 18.6485 5.59656 14.0005 5.59656Z" fill="#333333"/>
<path id="Vector_2" d="M12.8798 18.146L8.00781 13.274L8.79181 12.49L12.8798 16.578L19.2078 10.25L19.9918 11.034L12.8798 18.146Z" fill="#333333"/>
</g>
</svg>
