<svg width="8" height="8" viewBox="0 0 8 8" fill="none" xmlns="http://www.w3.org/2000/svg">
<g clip-path="url(#clip0_2421_50072)">
<path d="M3.24966 0.5C3.24966 0.223437 3.4731 0 3.74966 0H4.24966C4.52622 0 4.74966 0.223437 4.74966 0.5V2.70156L6.65591 1.60156C6.89497 1.46406 7.20122 1.54531 7.33872 1.78437L7.58872 2.21719C7.72622 2.45625 7.64497 2.7625 7.40591 2.9L5.49966 4L7.40591 5.1C7.64497 5.2375 7.72779 5.54375 7.58872 5.78281L7.33872 6.21562C7.20122 6.45469 6.89497 6.5375 6.65591 6.39844L4.74966 5.29844V7.5C4.74966 7.77656 4.52622 8 4.24966 8H3.74966C3.4731 8 3.24966 7.77656 3.24966 7.5V5.29844L1.34341 6.4C1.10435 6.5375 0.798099 6.45625 0.660599 6.21719L0.410599 5.78438C0.2731 5.54531 0.35435 5.23906 0.593412 5.10156L2.49966 4L0.593412 2.9C0.35435 2.7625 0.2731 2.45625 0.410599 2.21719L0.660599 1.78437C0.798099 1.54375 1.10435 1.4625 1.34341 1.6L3.24966 2.7V0.5Z" fill="#F86666"/>
</g>
<defs>
<clipPath id="clip0_2421_50072">
<rect width="8" height="8" fill="white"/>
</clipPath>
</defs>
</svg>
