<svg width="16" height="14" viewBox="0 0 16 14" fill="none" xmlns="http://www.w3.org/2000/svg">
<path d="M1.94991 0.685914C1.77493 0.160999 1.20625 -0.120205 0.68443 0.0516416C0.162613 0.223489 -0.12173 0.795271 0.0501258 1.31706L1.61245 6.00067H1.00002C0.446957 6.00067 0.000131381 6.44748 0.000131381 7.00051C0.000131381 7.55355 0.446957 8.00035 1.00002 8.00035H2.278L4.04968 13.3151C4.19029 13.7369 4.59337 14.015 5.03707 13.9994C5.48077 13.9838 5.86198 13.6744 5.96822 13.2432L7.28057 8.00035H8.71791L10.0303 13.2432C10.1365 13.6744 10.5177 13.9838 10.9614 13.9994C11.4051 14.015 11.8082 13.7369 11.9488 13.3151L13.7205 8.00035H14.9985C15.5515 8.00035 15.9984 7.55355 15.9984 7.00051C15.9984 6.44748 15.5515 6.00067 14.9985 6.00067H14.386L15.9484 1.31706C16.1233 0.792146 15.839 0.226613 15.3172 0.0516416C14.7954 -0.12333 14.2267 0.160999 14.0517 0.682789L12.2769 6.00067H10.2771L8.96788 0.757777C8.85852 0.314099 8.45856 0.0016498 7.99924 0.0016498C7.53992 0.0016498 7.13996 0.314099 7.0306 0.757777L5.71825 6.00067H3.71847L1.94991 0.685914ZM4.38714 8.00035H5.2183L4.86209 9.42512L4.38714 8.00035ZM7.78052 6.00067L7.99924 5.12269L8.21797 6.00067H7.78052ZM10.7802 8.00035H11.6113L11.1364 9.42512L10.7802 8.00035Z" fill="black"/>
</svg>
