<svg width="38" height="38" viewBox="0 0 38 38" fill="none" xmlns="http://www.w3.org/2000/svg">
<g id="Iconly/Regular/Light/Unlock">
<g id="Unlock">
<path id="Stroke 1 (Stroke)" fill-rule="evenodd" clip-rule="evenodd" d="M11.0833 11.1974C11.1029 6.65147 14.7398 2.98322 19.2067 3.00006C22.7495 3.00105 25.757 5.31813 26.8533 8.53969C27.0602 9.14763 26.7435 9.8111 26.146 10.0216C25.5485 10.2321 24.8965 9.9099 24.6896 9.30195C23.9024 6.98863 21.7422 5.32984 19.2044 5.32984H19.1998C15.9963 5.31687 13.3884 7.94656 13.3731 11.2051V14.5682C13.3731 15.2116 12.8605 15.7331 12.2282 15.7331C11.5959 15.7331 11.0833 15.2116 11.0833 14.5682L11.0833 11.1974Z" fill="white"/>
<path id="Stroke 3 (Stroke)" fill-rule="evenodd" clip-rule="evenodd" d="M12.6039 16.2573C9.79196 16.2573 7.51121 18.4073 7.51121 21.0605V27.8289C7.51121 30.4822 9.79196 32.6321 12.6039 32.6321H25.3961C28.208 32.6321 30.4888 30.4822 30.4888 27.8289V21.0605C30.4888 18.4073 28.208 16.2573 25.3961 16.2573H12.6039ZM5 21.0605C5 17.1001 8.40463 13.8896 12.6039 13.8896H25.3961C29.5954 13.8896 33 17.1001 33 21.0605V27.8289C33 31.7894 29.5954 34.9998 25.3961 34.9998H12.6039C8.40463 34.9998 5 31.7894 5 27.8289V21.0605Z" fill="white"/>
<path id="Stroke 5 (Stroke)" fill-rule="evenodd" clip-rule="evenodd" d="M19 20.5088C19.8745 20.5088 20.5834 21.0832 20.5834 21.7917V25.5925C20.5834 26.301 19.8745 26.8753 19 26.8753C18.1256 26.8753 17.4167 26.301 17.4167 25.5925V21.7917C17.4167 21.0832 18.1256 20.5088 19 20.5088Z" fill="white"/>
</g>
</g>
</svg>
