<svg width="24" height="24" viewBox="0 0 24 24" fill="none" xmlns="http://www.w3.org/2000/svg">
<g id="Iconly/Regular/Light/Unlock">
<g id="Unlock">
<path id="Stroke 1 (Stroke)" fill-rule="evenodd" clip-rule="evenodd" d="M7.00001 7.15026C7.01236 4.29416 9.30934 1.98946 12.1305 2.00004C14.3681 2.00066 16.2676 3.45644 16.96 5.48049C17.0907 5.86245 16.8907 6.2793 16.5133 6.41155C16.1359 6.5438 15.7241 6.34137 15.5934 5.95941C15.0962 4.50599 13.7319 3.4638 12.1291 3.4638H12.1262C10.1029 3.45565 8.45585 5.10784 8.44617 7.15513V9.26812C8.44617 9.67232 8.12244 10 7.72309 10C7.32374 10 7 9.67232 7 9.26812L7.00001 7.15026Z" fill="white"/>
<path id="Stroke 3 (Stroke)" fill-rule="evenodd" clip-rule="evenodd" d="M7.88825 10.4581C6.08055 10.4581 4.61435 11.782 4.61435 13.416V17.584C4.61435 19.218 6.08055 20.5419 7.88825 20.5419H16.1117C17.9195 20.5419 19.3857 19.218 19.3857 17.584V13.416C19.3857 11.782 17.9195 10.4581 16.1117 10.4581H7.88825ZM3 13.416C3 10.977 5.18869 9 7.88825 9H16.1117C18.8113 9 21 10.977 21 13.416V17.584C21 20.023 18.8113 22 16.1117 22H7.88825C5.18869 22 3 20.023 3 17.584V13.416Z" fill="white"/>
<path id="Stroke 5 (Stroke)" fill-rule="evenodd" clip-rule="evenodd" d="M12 13C12.5523 13 13 13.3609 13 13.806V16.194C13 16.6391 12.5523 17 12 17C11.4477 17 11 16.6391 11 16.194V13.806C11 13.3609 11.4477 13 12 13Z" fill="white"/>
</g>
</g>
</svg>
