<svg width="24" height="24" viewBox="0 0 24 24" fill="none" xmlns="http://www.w3.org/2000/svg">
<path d="M8.4152 5.67251C8.519 5.56865 8.6425 5.48621 8.77857 5.42995C8.91463 5.37369 9.06058 5.34473 9.20798 5.34473C9.35539 5.34473 9.50134 5.37369 9.6374 5.42995C9.77347 5.48621 9.89697 5.56865 10.0008 5.67251L15.5838 11.2132C15.6884 11.3162 15.7715 11.4387 15.8282 11.5738C15.8849 11.7088 15.9141 11.8536 15.9141 11.9999C15.9141 12.1462 15.8849 12.2911 15.8282 12.4261C15.7715 12.5611 15.6884 12.6837 15.5838 12.7867L10.0008 18.3274C9.89697 18.4312 9.77347 18.5137 9.6374 18.5699C9.50134 18.6262 9.35539 18.6551 9.20798 18.6551C9.06058 18.6551 8.91463 18.6262 8.77857 18.5699C8.6425 18.5137 8.519 18.4312 8.4152 18.3274C8.31054 18.2243 8.22747 18.1018 8.17078 17.9667C8.1141 17.8317 8.08491 17.6869 8.08491 17.5406C8.08491 17.3943 8.1141 17.2495 8.17078 17.1144C8.22747 16.9794 8.31054 16.8568 8.4152 16.7538L13.2166 11.9999L8.4152 7.24605C8.31054 7.14304 8.22747 7.02048 8.17078 6.88544C8.1141 6.75041 8.08491 6.60557 8.08491 6.45928C8.08491 6.313 8.1141 6.16816 8.17078 6.03312C8.22747 5.89808 8.31054 5.77552 8.4152 5.67251Z" fill="white"/>
</svg>
