<svg width="24" height="24" viewBox="0 0 24 24" fill="none" xmlns="http://www.w3.org/2000/svg">
<g id="Iconly/Regular/Light/Search">
<g id="Search">
<path id="Ellipse_739 (Stroke)" fill-rule="evenodd" clip-rule="evenodd" d="M11.6261 3.47401C7.14174 3.47401 3.50643 7.029 3.50643 11.4143C3.50643 15.7996 7.14174 19.3546 11.6261 19.3546C16.1105 19.3546 19.7458 15.7996 19.7458 11.4143C19.7458 7.029 16.1105 3.47401 11.6261 3.47401ZM2.02808 11.4143C2.02808 6.23057 6.32527 2.02832 11.6261 2.02832C16.927 2.02832 21.2242 6.23057 21.2242 11.4143C21.2242 16.598 16.927 20.8003 11.6261 20.8003C6.32527 20.8003 2.02808 16.598 2.02808 11.4143Z" fill="white"/>
<path id="Line_181 (Stroke)" fill-rule="evenodd" clip-rule="evenodd" d="M17.2642 17.3794C17.5525 17.0967 18.0205 17.0961 18.3095 17.378L21.7827 20.7657C22.0717 21.0476 22.0724 21.5053 21.7841 21.7879C21.4958 22.0706 21.0277 22.0712 20.7387 21.7893L17.2655 18.4016C16.9765 18.1197 16.9759 17.662 17.2642 17.3794Z" fill="white"/>
</g>
</g>
</svg>
