<svg width="24" height="24" viewBox="0 0 24 24" fill="none" xmlns="http://www.w3.org/2000/svg">
<path d="M17.3125 2H6.6875C4.09867 2 2 4.09867 2 6.6875V17.3125C2 19.9013 4.09867 22 6.6875 22H17.3125C19.9013 22 22 19.9013 22 17.3125V6.6875C22 4.09867 19.9013 2 17.3125 2Z" fill="#242938"/>
<mask id="mask0_10_794" style="mask-type:luminance" maskUnits="userSpaceOnUse" x="6" y="4" width="12" height="16">
<path d="M6.76562 4.1875H17.1844V19.8125H6.76562V4.1875Z" fill="white"/>
</mask>
<g mask="url(#mask0_10_794)">
<path d="M9.37082 19.8124C10.8083 19.8124 11.975 18.6457 11.975 17.2082V14.604H9.37082C7.93332 14.604 6.7666 15.7707 6.7666 17.2082C6.7666 18.6457 7.93332 19.8124 9.37082 19.8124Z" fill="#0ACF83"/>
<path d="M6.7666 12.0001C6.7666 10.5626 7.93332 9.396 9.37082 9.396H11.975V14.6043H9.37082C7.93332 14.6043 6.7666 13.4376 6.7666 12.0001Z" fill="#A259FF"/>
<path d="M6.76685 6.79164C6.76685 5.35414 7.93356 4.1875 9.37106 4.1875H11.9752V9.39586H9.37106C7.93356 9.39586 6.76685 8.22914 6.76685 6.79164Z" fill="#F24E1E"/>
<path d="M11.9751 4.1875H14.5792C16.0167 4.1875 17.1835 5.35414 17.1835 6.79164C17.1835 8.22914 16.0167 9.39586 14.5792 9.39586H11.9751V4.1875Z" fill="#FF7262"/>
<path d="M17.1835 12.0001C17.1835 13.4376 16.0167 14.6043 14.5792 14.6043C13.1417 14.6043 11.9751 13.4376 11.9751 12.0001C11.9751 10.5626 13.1417 9.396 14.5792 9.396C16.0167 9.396 17.1835 10.5626 17.1835 12.0001Z" fill="#1ABCFE"/>
</g>
</svg>
