<svg width="210" height="38" viewBox="0 0 210 38" fill="none" xmlns="http://www.w3.org/2000/svg">
<path d="M21.7793 25.208H29.0791C28.9326 27.6006 28.2734 29.7246 27.1016 31.5801C25.946 33.4355 24.3265 34.8841 22.2432 35.9258C20.1761 36.9674 17.6859 37.4883 14.7725 37.4883C12.4938 37.4883 10.4512 37.0977 8.64453 36.3164C6.83789 35.5189 5.29167 34.3796 4.00586 32.8984C2.73633 31.4173 1.7679 29.627 1.10059 27.5273C0.433268 25.4277 0.0996094 23.0758 0.0996094 20.4717V18.0059C0.0996094 15.4017 0.441406 13.0498 1.125 10.9502C1.82487 8.83431 2.81771 7.03581 4.10352 5.55469C5.4056 4.07357 6.95996 2.93424 8.7666 2.13672C10.5732 1.33919 12.5915 0.94043 14.8213 0.94043C17.7835 0.94043 20.2819 1.47754 22.3164 2.55176C24.3672 3.62598 25.9541 5.1071 27.0771 6.99512C28.2165 8.88314 28.9001 11.0316 29.1279 13.4404H21.8037C21.7223 12.0081 21.4375 10.7956 20.9492 9.80273C20.4609 8.79362 19.7204 8.03678 18.7275 7.53223C17.751 7.01139 16.4489 6.75098 14.8213 6.75098C13.6006 6.75098 12.5345 6.97884 11.623 7.43457C10.7116 7.8903 9.94661 8.58203 9.32812 9.50977C8.70964 10.4375 8.24577 11.6094 7.93652 13.0254C7.64355 14.4251 7.49707 16.069 7.49707 17.957V20.4717C7.49707 22.3109 7.63542 23.9303 7.91211 25.3301C8.1888 26.7135 8.61198 27.8854 9.18164 28.8457C9.76758 29.7897 10.5163 30.5059 11.4277 30.9941C12.3555 31.4661 13.4704 31.7021 14.7725 31.7021C16.3024 31.7021 17.5638 31.458 18.5566 30.9697C19.5495 30.4814 20.3063 29.7572 20.8271 28.7969C21.3643 27.8366 21.6816 26.6403 21.7793 25.208ZM31.791 33.6064C31.791 32.5648 32.1491 31.694 32.8652 30.9941C33.5977 30.2943 34.5661 29.9443 35.7705 29.9443C36.9749 29.9443 37.9352 30.2943 38.6514 30.9941C39.3838 31.694 39.75 32.5648 39.75 33.6064C39.75 34.6481 39.3838 35.5189 38.6514 36.2188C37.9352 36.9186 36.9749 37.2686 35.7705 37.2686C34.5661 37.2686 33.5977 36.9186 32.8652 36.2188C32.1491 35.5189 31.791 34.6481 31.791 33.6064ZM44.3906 1.45312H57.6475C60.3656 1.45312 62.7012 1.86003 64.6543 2.67383C66.6237 3.48763 68.1374 4.69206 69.1953 6.28711C70.2533 7.88216 70.7822 9.84342 70.7822 12.1709C70.7822 14.0752 70.4567 15.7109 69.8057 17.0781C69.1709 18.429 68.2676 19.5602 67.0957 20.4717C65.9401 21.3669 64.5811 22.083 63.0186 22.6201L60.6992 23.8408H49.1758L49.127 18.1279H57.6963C58.9821 18.1279 60.0482 17.9001 60.8945 17.4443C61.7409 16.9886 62.3757 16.3538 62.7988 15.54C63.2383 14.7262 63.458 13.7822 63.458 12.708C63.458 11.5687 63.2464 10.584 62.8232 9.75391C62.4001 8.92383 61.7572 8.28906 60.8945 7.84961C60.0319 7.41016 58.9495 7.19043 57.6475 7.19043H51.7148V37H44.3906V1.45312ZM64.2637 37L56.1582 21.1553L63.8975 21.1064L72.1006 36.6582V37H64.2637ZM74.3242 33.6064C74.3242 32.5648 74.6823 31.694 75.3984 30.9941C76.1309 30.2943 77.0993 29.9443 78.3037 29.9443C79.5081 29.9443 80.4684 30.2943 81.1846 30.9941C81.917 31.694 82.2832 32.5648 82.2832 33.6064C82.2832 34.6481 81.917 35.5189 81.1846 36.2188C80.4684 36.9186 79.5081 37.2686 78.3037 37.2686C77.0993 37.2686 76.1309 36.9186 75.3984 36.2188C74.6823 35.5189 74.3242 34.6481 74.3242 33.6064ZM115.881 27.6982C115.881 27.0635 115.783 26.4938 115.588 25.9893C115.409 25.4684 115.067 24.9964 114.562 24.5732C114.058 24.1338 113.35 23.7025 112.438 23.2793C111.527 22.8561 110.347 22.4167 108.898 21.9609C107.287 21.4401 105.757 20.8542 104.309 20.2031C102.876 19.5521 101.607 18.7952 100.5 17.9326C99.4095 17.0537 98.5469 16.0365 97.9121 14.8809C97.2936 13.7253 96.9844 12.3825 96.9844 10.8525C96.9844 9.37142 97.3099 8.02865 97.9609 6.82422C98.612 5.60352 99.5234 4.56185 100.695 3.69922C101.867 2.82031 103.251 2.14486 104.846 1.67285C106.457 1.20085 108.223 0.964844 110.144 0.964844C112.764 0.964844 115.051 1.43685 117.004 2.38086C118.957 3.32487 120.471 4.61882 121.545 6.2627C122.635 7.90658 123.181 9.78646 123.181 11.9023H115.905C115.905 10.8607 115.686 9.94922 115.246 9.16797C114.823 8.37044 114.172 7.74382 113.293 7.28809C112.43 6.83236 111.34 6.60449 110.021 6.60449C108.752 6.60449 107.694 6.7998 106.848 7.19043C106.001 7.56478 105.367 8.07747 104.943 8.72852C104.52 9.36328 104.309 10.0794 104.309 10.877C104.309 11.4792 104.455 12.0244 104.748 12.5127C105.057 13.001 105.513 13.4567 106.115 13.8799C106.717 14.3031 107.458 14.7018 108.337 15.0762C109.216 15.4505 110.233 15.8167 111.389 16.1748C113.326 16.7607 115.026 17.4199 116.491 18.1523C117.972 18.8848 119.209 19.7067 120.202 20.6182C121.195 21.5296 121.944 22.5632 122.448 23.7188C122.953 24.8743 123.205 26.1846 123.205 27.6494C123.205 29.1956 122.904 30.5791 122.302 31.7998C121.7 33.0205 120.829 34.054 119.689 34.9004C118.55 35.7467 117.191 36.3896 115.612 36.8291C114.034 37.2686 112.268 37.4883 110.314 37.4883C108.557 37.4883 106.823 37.2604 105.114 36.8047C103.405 36.3327 101.851 35.6247 100.451 34.6807C99.0677 33.7367 97.9609 32.5322 97.1309 31.0674C96.3008 29.6025 95.8857 27.8691 95.8857 25.8672H103.234C103.234 26.974 103.405 27.9098 103.747 28.6748C104.089 29.4398 104.569 30.0583 105.188 30.5303C105.822 31.0023 106.571 31.3441 107.434 31.5557C108.312 31.7673 109.273 31.873 110.314 31.873C111.584 31.873 112.626 31.694 113.439 31.3359C114.27 30.9779 114.88 30.4814 115.271 29.8467C115.677 29.2119 115.881 28.4958 115.881 27.6982ZM149.892 15.9307V21.6436H131.337V15.9307H149.892ZM133.51 1.45312V37H126.186V1.45312H133.51ZM155.116 1.45312V37H147.816V1.45312H155.116ZM167.276 1.45312V37H159.977V1.45312H167.276ZM175.481 1.45312H181.683L190.813 27.5518L199.944 1.45312H206.146L193.304 37H188.323L175.481 1.45312ZM172.137 1.45312H178.313L179.437 26.8926V37H172.137V1.45312ZM203.313 1.45312H209.515V37H202.19V26.8926L203.313 1.45312Z" fill="#7157F9"/>
</svg>
