<svg width="211" height="37" viewBox="0 0 211 37" fill="none" xmlns="http://www.w3.org/2000/svg">
<path d="M175.971 1.44543H182.19L191.346 27.1528L200.503 1.44543H206.721L193.843 36.4595H188.849L175.971 1.44543ZM172.617 1.44543H178.811L179.938 26.5035V36.4595H172.617V1.44543ZM203.881 1.44543H210.1V36.4595H202.755V26.5035L203.881 1.44543Z" fill="#CCCCCC"/>
<path d="M167.743 1.44543V36.4595H160.423V1.44543H167.743Z" fill="#CCCCCC"/>
<path d="M150.31 15.706V21.3332H131.703V15.706H150.31ZM133.882 1.44543V36.4595H126.538V1.44543H133.882ZM155.549 1.44543V36.4595H148.229V1.44543H155.549Z" fill="#CCCCCC"/>
<path d="M116.204 27.2971C116.204 26.6719 116.106 26.1108 115.911 25.6138C115.731 25.1007 115.388 24.6358 114.882 24.219C114.376 23.7861 113.666 23.3613 112.752 22.9444C111.838 22.5276 110.655 22.0947 109.202 21.6458C107.587 21.1328 106.052 20.5557 104.6 19.9144C103.163 19.2731 101.89 18.5276 100.78 17.6779C99.6869 16.8122 98.8219 15.8102 98.1853 14.6719C97.5651 13.5336 97.255 12.211 97.255 10.704C97.255 9.24504 97.5815 7.92239 98.2343 6.73602C98.8872 5.53362 99.8012 4.50756 100.976 3.65786C102.151 2.79213 103.539 2.1268 105.138 1.66187C106.754 1.19694 108.525 0.964478 110.451 0.964478C113.079 0.964478 115.372 1.42941 117.33 2.35927C119.289 3.28913 120.807 4.56368 121.884 6.18291C122.978 7.80215 123.524 9.65386 123.524 11.738H116.229C116.229 10.712 116.008 9.81418 115.568 9.04464C115.143 8.25907 114.491 7.64183 113.609 7.19293C112.744 6.74404 111.651 6.51959 110.329 6.51959C109.055 6.51959 107.995 6.71197 107.146 7.09674C106.297 7.46548 105.661 7.97049 105.236 8.61177C104.812 9.23702 104.6 9.94243 104.6 10.728C104.6 11.3212 104.747 11.8583 105.04 12.3392C105.35 12.8202 105.807 13.2691 106.411 13.6859C107.015 14.1028 107.758 14.4955 108.639 14.8643C109.521 15.233 110.541 15.5937 111.7 15.9464C113.642 16.5236 115.347 17.1729 116.816 17.8943C118.302 18.6158 119.542 19.4254 120.538 20.3232C121.533 21.221 122.284 22.239 122.79 23.3773C123.296 24.5156 123.549 25.8062 123.549 27.249C123.549 28.7721 123.247 30.1348 122.643 31.3372C122.039 32.5396 121.166 33.5577 120.024 34.3913C118.881 35.225 117.518 35.8583 115.935 36.2911C114.352 36.724 112.581 36.9404 110.622 36.9404C108.86 36.9404 107.121 36.716 105.408 36.2671C103.694 35.8022 102.135 35.1048 100.732 34.1749C99.3442 33.245 98.2343 32.0587 97.4019 30.6158C96.5695 29.1729 96.1533 27.4655 96.1533 25.4935H103.522C103.522 26.5837 103.694 27.5056 104.037 28.2591C104.379 29.0126 104.861 29.6218 105.481 30.0867C106.118 30.5517 106.868 30.8883 107.733 31.0967C108.615 31.3052 109.578 31.4094 110.622 31.4094C111.895 31.4094 112.94 31.233 113.756 30.8803C114.588 30.5276 115.201 30.0386 115.592 29.4134C116 28.7881 116.204 28.0827 116.204 27.2971Z" fill="#CCCCCC"/>
<path d="M74.5316 33.1168C74.5316 32.0907 74.8906 31.233 75.6088 30.5437C76.3432 29.8543 77.3144 29.5096 78.5222 29.5096C79.73 29.5096 80.6929 29.8543 81.4111 30.5437C82.1455 31.233 82.5128 32.0907 82.5128 33.1168C82.5128 34.1428 82.1455 35.0006 81.4111 35.6899C80.6929 36.3793 79.73 36.724 78.5222 36.724C77.3144 36.724 76.3432 36.3793 75.6088 35.6899C74.8906 35.0006 74.5316 34.1428 74.5316 33.1168Z" fill="#CCCCCC"/>
<path d="M44.5143 1.44543H57.8082C60.5339 1.44543 62.876 1.84624 64.8346 2.64784C66.8095 3.44944 68.3274 4.63582 69.3883 6.20696C70.4492 7.7781 70.9797 9.70996 70.9797 12.0025C70.9797 13.8783 70.6532 15.4895 70.0004 16.8362C69.3638 18.1669 68.458 19.2811 67.2828 20.1789C66.124 21.0607 64.7612 21.7661 63.1943 22.2951L60.8685 23.4975H49.3129L49.2639 17.8703H57.8572C59.1466 17.8703 60.2156 17.6458 61.0644 17.1969C61.9131 16.748 62.5496 16.1228 62.974 15.3212C63.4146 14.5196 63.635 13.5897 63.635 12.5316C63.635 11.4094 63.4228 10.4394 62.9984 9.62179C62.5741 8.80415 61.9294 8.1789 61.0644 7.74604C60.1993 7.31317 59.1139 7.09674 57.8082 7.09674H51.859V36.4595H44.5143V1.44543ZM64.4429 36.4595L56.3148 20.8522L64.0757 20.8042L72.3017 36.1228V36.4595H64.4429Z" fill="#CCCCCC"/>
<path d="M31.8795 33.1168C31.8795 32.0907 32.2386 31.233 32.9567 30.5437C33.6912 29.8543 34.6623 29.5096 35.8701 29.5096C37.0779 29.5096 38.0409 29.8543 38.759 30.5437C39.4935 31.233 39.8607 32.0907 39.8607 33.1168C39.8607 34.1428 39.4935 35.0006 38.759 35.6899C38.0409 36.3793 37.0779 36.724 35.8701 36.724C34.6623 36.724 33.6912 36.3793 32.9567 35.6899C32.2386 35.0006 31.8795 34.1428 31.8795 33.1168Z" fill="#CCCCCC"/>
<path d="M21.8399 24.8442H29.16C29.0132 27.201 28.3521 29.2931 27.177 31.1208C26.0182 32.9484 24.3942 34.3753 22.305 35.4014C20.2322 36.4274 17.735 36.9404 14.8134 36.9404C12.5284 36.9404 10.4801 36.5557 8.6684 35.7861C6.85671 35.0005 5.30617 33.8783 4.01677 32.4194C2.74369 30.9605 1.77256 29.1969 1.10338 27.1288C0.4342 25.0607 0.0996094 22.744 0.0996094 20.1789V17.75C0.0996094 15.1849 0.442361 12.8683 1.12786 10.8001C1.82969 8.71598 2.8253 6.94444 4.1147 5.48552C5.42042 4.0266 6.97912 2.90436 8.79081 2.11879C10.6025 1.33322 12.6264 0.94043 14.8624 0.94043C17.8329 0.94043 20.3383 1.46949 22.3785 2.5276C24.435 3.58572 26.0263 5.04464 27.1525 6.90436C28.295 8.76408 28.9805 10.8803 29.209 13.2531H21.8643C21.7827 11.8422 21.4971 10.6478 21.0075 9.66989C20.5178 8.6759 19.7752 7.93041 18.7796 7.43342C17.8003 6.92039 16.4946 6.66388 14.8624 6.66388C13.6383 6.66388 12.5692 6.88833 11.6552 7.33722C10.7412 7.78612 9.97412 8.46748 9.3539 9.38131C8.73369 10.2951 8.26852 11.4494 7.95841 12.8442C7.66463 14.223 7.51773 15.8422 7.51773 17.702V20.1789C7.51773 21.9905 7.65647 23.5857 7.93393 24.9645C8.2114 26.3272 8.63576 27.4815 9.20701 28.4274C9.79458 29.3573 10.5454 30.0627 11.4594 30.5436C12.3897 31.0086 13.5077 31.241 14.8134 31.241C16.3477 31.241 17.6126 31.0005 18.6082 30.5196C19.6038 30.0386 20.3628 29.3252 20.885 28.3793C21.4237 27.4334 21.7419 26.2551 21.8399 24.8442Z" fill="#CCCCCC"/>
</svg>
