<svg width="24" height="24" viewBox="0 0 24 24" fill="none" xmlns="http://www.w3.org/2000/svg">
<g id="Iconly/Regular/Light/Lock">
<g id="Lock">
<path id="Stroke 1 (Stroke)" fill-rule="evenodd" clip-rule="evenodd" d="M6.28492 7.27776C6.29871 4.35017 8.86261 1.98813 12.0122 2.00004C15.1618 2.00093 17.7156 4.37438 17.7156 7.30104V9.44804C17.7156 9.86226 17.3542 10.198 16.9084 10.198C16.4626 10.198 16.1012 9.86226 16.1012 9.44804V7.30104C16.1012 5.20226 14.2693 3.50004 12.0105 3.50004H12.0069C9.74879 3.49086 7.91006 5.18363 7.89926 7.28276V9.44804C7.89926 9.86226 7.53788 10.198 7.09209 10.198C6.6463 10.198 6.28491 9.86226 6.28491 9.44804L6.28492 7.27776Z" fill="white"/>
<path id="Stroke 3 (Stroke)" fill-rule="evenodd" clip-rule="evenodd" d="M7.88825 10.127C6.08027 10.127 4.61435 11.4883 4.61435 13.169V17.458C4.61435 19.1386 6.08027 20.5 7.88825 20.5H16.1117C17.9197 20.5 19.3857 19.1386 19.3857 17.458V13.169C19.3857 11.4883 17.9197 10.127 16.1117 10.127H7.88825ZM3 13.169C3 10.6596 5.18897 8.62695 7.88825 8.62695H16.1117C18.811 8.62695 21 10.6596 21 13.169V17.458C21 19.9673 18.811 22 16.1117 22H7.88825C5.18897 22 3 19.9673 3 17.458V13.169Z" fill="white"/>
<path id="Stroke 5 (Stroke)" fill-rule="evenodd" clip-rule="evenodd" d="M12.0003 13.4531C12.4461 13.4531 12.8075 13.7889 12.8075 14.2031V16.4241C12.8075 16.8383 12.4461 17.1741 12.0003 17.1741C11.5545 17.1741 11.1931 16.8383 11.1931 16.4241V14.2031C11.1931 13.7889 11.5545 13.4531 12.0003 13.4531Z" fill="white"/>
</g>
</g>
</svg>
