<svg width="38" height="38" viewBox="0 0 38 38" fill="none" xmlns="http://www.w3.org/2000/svg">
<g id="Iconly/Regular/Light/Search">
<g id="Search">
<path id="Ellipse_739 (Stroke)" fill-rule="evenodd" clip-rule="evenodd" d="M18.408 5.50093C11.3078 5.50093 5.55185 11.1297 5.55185 18.073C5.55185 25.0164 11.3078 30.6452 18.408 30.6452C25.5083 30.6452 31.2642 25.0164 31.2642 18.073C31.2642 11.1297 25.5083 5.50093 18.408 5.50093ZM3.21112 18.073C3.21112 9.86547 10.015 3.21191 18.408 3.21191C26.8011 3.21191 33.6049 9.86547 33.6049 18.073C33.6049 26.2806 26.8011 32.9342 18.408 32.9342C10.015 32.9342 3.21112 26.2806 3.21112 18.073Z" fill="white"/>
<path id="Line_181 (Stroke)" fill-rule="evenodd" clip-rule="evenodd" d="M27.3349 27.5169C27.7914 27.0694 28.5324 27.0685 28.9901 27.5148L34.4893 32.8786C34.9469 33.3249 34.9479 34.0496 34.4914 34.4971C34.035 34.9447 33.294 34.9456 32.8363 34.4992L27.3371 29.1355C26.8794 28.6891 26.8785 27.9645 27.3349 27.5169Z" fill="white"/>
</g>
</g>
</svg>
