<svg width="18" height="18" viewBox="0 0 18 18" fill="none" xmlns="http://www.w3.org/2000/svg">
<path d="M8.60112 16C5.06592 16 2 13.9342 2 9.72824C2 5.06157 5.59776 2 9.83687 2C13.6067 2 16 4.42251 16 7.88535C16 10.9321 13.8883 12.4777 12.0894 12.4777C11.0883 12.4777 10.2749 12.0318 10.1028 11.1996H10.0715C9.55531 11.8535 8.66369 12.3291 7.92849 12.3291C6.58324 12.3291 5.64469 11.3779 5.64469 9.83227C5.64469 7.85563 7.14637 5.76009 9.17989 5.76009C9.7743 5.76009 10.2436 6.01274 10.5408 6.59236H10.5721L10.8223 5.89384H12.2458L11.4793 9.52017C11.1978 10.6051 11.4793 11.1104 12.324 11.1104C13.4034 11.1104 14.5296 9.89172 14.5296 7.95966C14.5296 5.44798 13.0592 3.35244 9.64916 3.35244C6.59888 3.35244 3.56425 5.8344 3.56425 9.66879C3.56425 12.983 5.9419 14.6476 8.78883 14.6476C9.74302 14.6476 10.7754 14.3652 11.5263 13.9639L12.0425 15.1826C10.9788 15.7473 9.85251 16 8.60112 16ZM8.41341 10.9321C8.82011 10.9321 9.21117 10.7091 9.71173 10.1146L10.1654 7.73673C9.93073 7.35032 9.64916 7.18684 9.24246 7.18684C8.10056 7.18684 7.38101 8.62845 7.38101 9.71338C7.38101 10.5456 7.80335 10.9321 8.41341 10.9321Z" fill="#767676"/>
</svg>
