<svg width="18" height="18" viewBox="0 0 18 18" fill="none" xmlns="http://www.w3.org/2000/svg">
<path d="M5.3375 2.34476C5.44356 2.23552 5.56976 2.14881 5.70879 2.08964C5.84783 2.03047 5.99696 2 6.14758 2C6.2982 2 6.44733 2.03047 6.58637 2.08964C6.72541 2.14881 6.8516 2.23552 6.95767 2.34476L12.6625 8.17247C12.7694 8.28082 12.8543 8.40973 12.9123 8.55176C12.9702 8.69379 13 8.84613 13 9C13 9.15386 12.9702 9.30621 12.9123 9.44824C12.8543 9.59027 12.7694 9.71918 12.6625 9.82753L6.95767 15.6552C6.8516 15.7645 6.72541 15.8512 6.58637 15.9104C6.44733 15.9695 6.2982 16 6.14758 16C5.99696 16 5.84783 15.9695 5.70879 15.9104C5.56976 15.8512 5.44356 15.7645 5.3375 15.6552C5.23056 15.5469 5.14567 15.418 5.08775 15.2759C5.02982 15.1339 5 14.9816 5 14.8277C5 14.6738 5.02982 14.5215 5.08775 14.3795C5.14567 14.2374 5.23056 14.1085 5.3375 14.0002L10.2437 9L5.3375 3.99983C5.23056 3.89148 5.14567 3.76257 5.08775 3.62054C5.02982 3.47851 5 3.32616 5 3.1723C5 3.01843 5.02982 2.86609 5.08775 2.72406C5.14567 2.58203 5.23056 2.45312 5.3375 2.34476Z" fill="#CCCCCC"/>
</svg>
