<svg width="18" height="18" viewBox="0 0 18 18" fill="none" xmlns="http://www.w3.org/2000/svg">
<path d="M15.6552 5.3375C15.7645 5.44356 15.8512 5.56976 15.9104 5.70879C15.9695 5.84783 16 5.99696 16 6.14758C16 6.2982 15.9695 6.44733 15.9104 6.58637C15.8512 6.72541 15.7645 6.8516 15.6552 6.95767L9.82753 12.6625C9.71918 12.7694 9.59027 12.8543 9.44824 12.9123C9.30621 12.9702 9.15387 13 9 13C8.84614 13 8.69379 12.9702 8.55176 12.9123C8.40973 12.8543 8.28082 12.7694 8.17247 12.6625L2.34477 6.95767C2.23552 6.8516 2.14881 6.72541 2.08964 6.58637C2.03046 6.44733 2 6.2982 2 6.14758C2 5.99696 2.03046 5.84783 2.08964 5.70879C2.14881 5.56976 2.23552 5.44356 2.34477 5.3375C2.45312 5.23056 2.58203 5.14567 2.72406 5.08775C2.86609 5.02982 3.01843 5 3.1723 5C3.32616 5 3.47851 5.02982 3.62054 5.08775C3.76257 5.14567 3.89148 5.23056 3.99983 5.3375L9 10.2437L14.0002 5.3375C14.1085 5.23056 14.2374 5.14567 14.3795 5.08775C14.5215 5.02982 14.6738 5 14.8277 5C14.9816 5 15.1339 5.02982 15.2759 5.08775C15.418 5.14567 15.5469 5.23056 15.6552 5.3375Z" fill="#CCCCCC"/>
</svg>
