<svg width="28" height="28" viewBox="0 0 28 28" fill="none" xmlns="http://www.w3.org/2000/svg">
<g clip-path="url(#clip0_3071_25095)">
<path d="M24.4856 11.9046H23.6241V11.8602H13.9991V16.138H20.0431C19.1613 18.6282 16.792 20.4158 13.9991 20.4158C10.4555 20.4158 7.58247 17.5427 7.58247 13.9991C7.58247 10.4555 10.4555 7.58247 13.9991 7.58247C15.6348 7.58247 17.123 8.19953 18.2561 9.20749L21.281 6.18256C19.371 4.40247 16.816 3.30469 13.9991 3.30469C8.09312 3.30469 3.30469 8.09312 3.30469 13.9991C3.30469 19.9051 8.09312 24.6936 13.9991 24.6936C19.9051 24.6936 24.6936 19.9051 24.6936 13.9991C24.6936 13.2821 24.6198 12.5821 24.4856 11.9046Z" fill="#FFC107"/>
<path d="M4.53906 9.0214L8.05272 11.5982C9.00346 9.24438 11.306 7.58247 14.0004 7.58247C15.6362 7.58247 17.1243 8.19953 18.2574 9.20749L21.2823 6.18256C19.3723 4.40247 16.8174 3.30469 14.0004 3.30469C9.8927 3.30469 6.33038 5.62378 4.53906 9.0214Z" fill="#FF3D00"/>
<path d="M14.0012 24.6907C16.7636 24.6907 19.2736 23.6336 21.1713 21.9145L17.8614 19.1136C16.7518 19.9579 15.3955 20.4145 14.0012 20.413C11.2196 20.413 8.85771 18.6393 7.96793 16.1641L4.48047 18.851C6.2504 22.3144 9.8448 24.6907 14.0012 24.6907Z" fill="#4CAF50"/>
<path d="M24.4864 11.9038H23.625V11.8594H14V16.1372H20.044C19.6222 17.3223 18.8624 18.3579 17.8586 19.1161L17.8602 19.115L21.1701 21.9159C20.9359 22.1287 24.6944 19.3455 24.6944 13.9983C24.6944 13.2812 24.6207 12.5813 24.4864 11.9038Z" fill="#1976D2"/>
</g>
<defs>
<clipPath id="clip0_3071_25095">
<rect width="22" height="22" fill="white" transform="translate(3 3)"/>
</clipPath>
</defs>
</svg>
