<svg width="24" height="24" viewBox="0 0 24 24" fill="none" xmlns="http://www.w3.org/2000/svg">
<path d="M9.57187 14.5114C9.01242 13.9291 8.67188 13.138 8.67188 12.2504C8.67188 10.4723 10.0457 9.03906 11.7504 9.03906C12.5939 9.03906 13.3704 9.39509 13.9201 9.97732" stroke="black" stroke-width="1.5" stroke-linecap="round" stroke-linejoin="round"/>
<path d="M14.7731 12.8281C14.5474 14.1366 13.5588 15.1692 12.3047 15.4065" stroke="black" stroke-width="1.5" stroke-linecap="round" stroke-linejoin="round"/>
<path d="M6.54946 17.6628C5.00535 16.399 3.69768 14.5529 2.75 12.2514C3.70741 9.93973 5.02384 8.08351 6.57768 6.80952C8.12178 5.53552 9.9033 4.84375 11.75 4.84375C13.6074 4.84375 15.3879 5.54566 16.9418 6.82879" stroke="black" stroke-width="1.5" stroke-linecap="round" stroke-linejoin="round"/>
<path d="M18.9993 9.0625C19.6687 9.9896 20.2574 11.0597 20.7526 12.2536C18.8388 16.8759 15.4567 19.6602 11.7526 19.6602C10.913 19.6602 10.085 19.5182 9.28906 19.2413" stroke="black" stroke-width="1.5" stroke-linecap="round" stroke-linejoin="round"/>
<path d="M19.4258 4.25L4.07812 20.25" stroke="black" stroke-width="1.5" stroke-linecap="round" stroke-linejoin="round"/>
</svg>
