<svg width="28" height="28" viewBox="0 0 28 28" fill="none" xmlns="http://www.w3.org/2000/svg">
<g id="ri:kakao-talk-fill">
<path id="Vector" d="M13.9988 3.5C20.7655 3.5 26.25 7.77467 26.25 13.0492C26.25 18.3225 20.7655 22.5972 14 22.5972C13.3264 22.596 12.6535 22.5531 11.9852 22.4688L6.8425 25.8323C6.258 26.1415 6.0515 26.1077 6.29183 25.3505L7.3325 21.0595C3.9725 19.3562 1.75 16.4045 1.75 13.0492C1.75 7.77583 7.23333 3.5 14 3.5M20.8927 12.9033L22.6077 11.242C22.7066 11.1392 22.7618 11.0021 22.7617 10.8594C22.7615 10.7167 22.7059 10.5797 22.6067 10.4771C22.5075 10.3746 22.3724 10.3146 22.2298 10.3097C22.0872 10.3048 21.9483 10.3555 21.8423 10.451L19.593 12.628V10.829C19.593 10.683 19.535 10.5429 19.4317 10.4396C19.3284 10.3363 19.1884 10.2783 19.0423 10.2783C18.8963 10.2783 18.7562 10.3363 18.653 10.4396C18.5497 10.5429 18.4917 10.683 18.4917 10.829V13.8122C18.4723 13.8974 18.4723 13.9859 18.4917 14.0712V15.75C18.4917 15.896 18.5497 16.0361 18.653 16.1394C18.7562 16.2427 18.8963 16.3007 19.0423 16.3007C19.1884 16.3007 19.3284 16.2427 19.4317 16.1394C19.535 16.0361 19.593 15.896 19.593 15.75V14.1598L20.0912 13.678L21.7572 16.0498C21.7988 16.109 21.8516 16.1595 21.9127 16.1983C21.9738 16.2371 22.0419 16.2634 22.1132 16.2759C22.1845 16.2884 22.2575 16.2867 22.3282 16.2709C22.3988 16.2551 22.4656 16.2256 22.5248 16.184C22.584 16.1424 22.6345 16.0896 22.6733 16.0285C22.7121 15.9674 22.7384 15.8992 22.7509 15.828C22.7634 15.7567 22.7617 15.6836 22.7459 15.613C22.7301 15.5424 22.7006 15.4755 22.659 15.4163L20.8927 12.9033ZM17.4417 15.148H15.7383V10.8465C15.7318 10.705 15.671 10.5714 15.5686 10.4736C15.4661 10.3758 15.3299 10.3212 15.1882 10.3212C15.0466 10.3212 14.9104 10.3758 14.8079 10.4736C14.7055 10.5714 14.6447 10.705 14.6382 10.8465V15.6987C14.6382 16.002 14.8832 16.2493 15.1877 16.2493H17.4417C17.5877 16.2493 17.7278 16.1913 17.831 16.088C17.9343 15.9848 17.9923 15.8447 17.9923 15.6987C17.9923 15.5526 17.9343 15.4126 17.831 15.3093C17.7278 15.206 17.5877 15.148 17.4417 15.148ZM10.6085 13.8752L11.4205 11.8825L12.1648 13.874L10.6085 13.8752ZM13.552 14.4433L13.5543 14.4247C13.5539 14.286 13.501 14.1526 13.4062 14.0513L12.1858 10.7847C12.1347 10.629 12.0372 10.4926 11.9065 10.3938C11.7758 10.295 11.6181 10.2384 11.4543 10.2317C11.2896 10.2316 11.1286 10.2814 10.9927 10.3744C10.8567 10.4675 10.7521 10.5995 10.6925 10.7532L8.7535 15.5073C8.69827 15.6425 8.69901 15.7942 8.75557 15.9288C8.81213 16.0635 8.91987 16.1702 9.05508 16.2254C9.1903 16.2806 9.34192 16.2799 9.47658 16.2233C9.61125 16.1668 9.71794 16.059 9.77317 15.9238L10.1605 14.9753H12.5755L12.9232 15.9087C12.9469 15.9784 12.9844 16.0427 13.0334 16.0977C13.0824 16.1528 13.142 16.1974 13.2085 16.229C13.2751 16.2605 13.3473 16.2784 13.421 16.2816C13.4946 16.2847 13.5681 16.2731 13.6371 16.2473C13.7061 16.2216 13.7693 16.1822 13.8228 16.1316C13.8764 16.0809 13.9192 16.0201 13.9488 15.9526C13.9784 15.8851 13.9942 15.8124 13.9951 15.7387C13.9961 15.665 13.9823 15.5919 13.9545 15.5237L13.552 14.4433ZM9.67517 10.8523C9.67547 10.78 9.66148 10.7084 9.63399 10.6415C9.6065 10.5746 9.56605 10.5139 9.51498 10.4627C9.46391 10.4115 9.40322 10.3709 9.3364 10.3433C9.26959 10.3157 9.19797 10.3015 9.12567 10.3017H5.33983C5.19379 10.3017 5.05372 10.3597 4.95045 10.463C4.84718 10.5662 4.78917 10.7063 4.78917 10.8523C4.78917 10.9984 4.84718 11.1384 4.95045 11.2417C5.05372 11.345 5.19379 11.403 5.33983 11.403H6.69317V15.7617C6.69317 15.9077 6.75118 16.0478 6.85445 16.151C6.95772 16.2543 7.09779 16.3123 7.24383 16.3123C7.38988 16.3123 7.52994 16.2543 7.63321 16.151C7.73648 16.0478 7.7945 15.9077 7.7945 15.7617V11.403H9.1245C9.1969 11.4033 9.26865 11.3893 9.3356 11.3617C9.40254 11.3341 9.46337 11.2936 9.51457 11.2424C9.56576 11.1912 9.60631 11.1304 9.63388 11.0634C9.66144 10.9965 9.67547 10.9247 9.67517 10.8523Z" fill="#181600"/>
</g>
</svg>
