<svg width="13" height="14" viewBox="0 0 13 14" fill="none" xmlns="http://www.w3.org/2000/svg">
<path fill-rule="evenodd" clip-rule="evenodd" d="M1.74 0.00976701C1.44439 0.00947454 1.15358 0.0845008 0.895 0.227767C0.629827 0.362928 0.406435 0.567705 0.248769 0.820147C0.0911027 1.07259 0.00510723 1.36318 0 1.66077V12.3378C0.00510723 12.6354 0.0911027 12.9259 0.248769 13.1784C0.406435 13.4308 0.629827 13.6356 0.895 13.7708C1.15826 13.917 1.45497 13.9924 1.75611 13.9896C2.05725 13.9868 2.35251 13.9059 2.613 13.7548L11.243 8.41677C11.5093 8.28255 11.7331 8.07701 11.8895 7.82305C12.0458 7.56908 12.1285 7.27669 12.1284 6.97846C12.1283 6.68023 12.0454 6.38789 11.8889 6.13404C11.7324 5.88019 11.5084 5.67479 11.242 5.54077L2.612 0.242767C2.34689 0.089751 2.0461 0.00938031 1.74 0.00976701Z" fill="white"/>
</svg>
