<svg width="40" height="40" viewBox="0 0 40 40" fill="none" xmlns="http://www.w3.org/2000/svg">
<rect width="40" height="40" rx="10" fill="white"/>
<path d="M32.9249 20.3531C32.9249 20.0311 32.925 19.7094 32.9322 19.3875C32.9396 18.6936 32.9396 17.9783 32.9177 17.2702C32.9031 16.9555 32.8885 16.6622 32.8666 16.376C32.757 14.9454 32.5817 13.5721 31.7202 12.5493C30.9242 11.605 29.7121 11.3976 28.6314 11.2831C27.3682 11.1401 26.0466 11.0471 24.6007 10.9971C21.8698 10.8969 19.1097 10.9542 16.4445 11.0114C15.0717 11.04 13.6478 11.0686 12.2459 11.1831C10.4277 11.3261 8.58033 11.6122 7.72598 13.4147C7.0615 14.8167 7.0615 16.5263 7.0615 18.0284C7.0615 18.2072 7.0615 18.386 7.0615 18.5577C7.0542 20.1099 7.04692 21.5047 7.10534 22.9067C7.18565 24.8094 7.28788 27.4201 9.56608 28.3286C10.7563 28.8007 12.2167 28.8937 13.2827 28.9652C14.2466 29.0296 15.2177 29.0367 16.1597 29.0439C16.4591 29.0439 16.7512 29.0511 17.0506 29.0511C17.496 29.0582 17.9414 29.0582 18.3868 29.0582C19.9859 29.0582 21.5851 29.0224 23.1477 28.9867C23.7464 28.9723 24.3379 28.958 24.9367 28.9509H25.09C26.8789 28.9151 28.7263 28.8793 30.4715 28.3C32.1072 27.7563 32.5598 26.104 32.7862 24.559C32.9615 23.3859 32.9468 22.1842 32.9396 21.0254C32.9249 20.8037 32.9249 20.5819 32.9249 20.3531Z" fill="black"/>
<path d="M17.5684 20.003V16.1977C17.5684 15.9545 17.8313 15.8043 18.043 15.9259L21.4019 17.8286L24.7608 19.7313C24.9725 19.8528 24.9725 20.1532 24.7608 20.2749L21.4019 22.1776L18.043 24.0803C17.8313 24.2018 17.5684 24.0516 17.5684 23.8084V20.003Z" fill="white"/>
</svg>
