<svg width="148" height="30" viewBox="0 0 148 30" fill="none" xmlns="http://www.w3.org/2000/svg">
<path fill-rule="evenodd" clip-rule="evenodd" d="M22.8319 2.53039C21.2894 2.98761 19.615 3.94423 18.3338 4.80447C17.8281 5.14395 17.1439 5.00805 16.8054 4.50093C16.467 3.99381 16.6025 3.30752 17.1081 2.96804C18.4555 2.06334 20.3477 0.962324 22.2074 0.411076C24.0025 -0.121012 26.2462 -0.263283 27.6803 1.50557C29.0375 3.17959 28.7779 5.4819 28.2247 7.30877C27.6512 9.20261 26.6351 11.02 25.8672 12.1339C25.8126 12.2179 25.7554 12.3062 25.6955 12.3987C24.266 14.6049 21.3387 19.1226 17.8524 21.8811C17.3747 22.2591 16.682 22.1771 16.3051 21.698C15.9283 21.2188 16.0101 20.524 16.4877 20.1461C19.6784 17.6215 22.4342 13.3735 23.8853 11.1368C23.9349 11.0603 23.983 10.9861 24.0295 10.9145L24.0382 10.9012L24.0472 10.8882C24.724 9.90898 25.6243 8.29174 26.1164 6.66655C26.6311 4.9668 26.5851 3.65751 25.9708 2.89983C25.4334 2.23697 24.439 2.05401 22.8319 2.53039Z" fill="black"/>
<path fill-rule="evenodd" clip-rule="evenodd" d="M6.24674 26.3108C7.95503 25.8115 9.78747 24.8087 11.0486 23.962C11.5542 23.6225 12.2384 23.7584 12.5769 24.2655C12.9153 24.7726 12.7798 25.4589 12.2742 25.7984C10.9066 26.7166 8.86483 27.8474 6.86318 28.4324C5.86337 28.7247 4.8048 28.9015 3.81295 28.8023C2.79916 28.701 1.80813 28.3025 1.08666 27.4127C-0.270558 25.7386 -0.0109406 23.4363 0.542258 21.6095C1.11575 19.7156 2.13187 17.8981 2.89981 16.7843C4.29666 14.6355 7.36874 10.2948 10.9791 7.43823C11.4568 7.06027 12.1495 7.14226 12.5263 7.62138C12.9032 8.1005 12.8214 8.7953 12.3437 9.17326C9.02168 11.8018 6.10464 15.899 4.73738 18.0037L4.72874 18.017L4.71973 18.0301C4.04296 19.0093 3.14264 20.6265 2.65051 22.2517C2.13581 23.9514 2.18184 25.2607 2.79614 26.0184C3.06043 26.3444 3.44868 26.5451 4.03149 26.6033C4.63624 26.6638 5.39157 26.5607 6.24674 26.3108Z" fill="black"/>
<path fill-rule="evenodd" clip-rule="evenodd" d="M26.232 22.8462C25.7714 21.2928 24.8095 19.6003 23.9609 18.3059C23.6267 17.7961 23.7679 17.1109 24.2763 16.7755C24.7848 16.4402 25.4679 16.5816 25.8021 17.0915C26.6858 18.4396 27.7902 20.3482 28.344 22.2158C28.8767 24.0125 29.0311 26.2848 27.2126 27.6966C25.5151 29.0145 23.216 28.722 21.3908 28.1435C19.4988 27.5438 17.6896 26.5053 16.5827 25.7241C14.4688 24.3172 10.3077 21.4699 7.48597 17.8238C7.11295 17.3418 7.20022 16.6476 7.6809 16.2733C8.16158 15.8991 8.85364 15.9864 9.22667 16.4684C11.8082 19.8043 15.6966 22.4822 17.814 23.8911L17.8271 23.8998L17.8399 23.9089C18.8138 24.5979 20.4267 25.5201 22.0553 26.0363C23.7581 26.576 25.0859 26.5534 25.8642 25.9492C26.5214 25.439 26.7136 24.4704 26.232 22.8462Z" fill="black"/>
<path fill-rule="evenodd" clip-rule="evenodd" d="M2.60063 5.89206C3.06185 7.46197 4.02477 9.17064 4.87092 10.4615C5.20509 10.9713 5.06381 11.6565 4.55535 11.9919C4.04689 12.3273 3.36381 12.1859 3.02963 11.6761C2.14376 10.3247 1.04027 8.40051 0.487087 6.51761C-0.0437872 4.71063 -0.200719 2.42028 1.61931 1.00721C3.31695 -0.310836 5.61604 -0.0185783 7.44117 0.559752C9.33308 1.15925 11.1423 2.19759 12.2491 2.97866C14.3729 4.39229 18.5277 7.29985 21.3459 10.9417C21.7189 11.4236 21.6315 12.1178 21.1508 12.4921C20.6701 12.8664 19.978 12.7791 19.605 12.2971C17.0206 8.95744 13.1246 6.21371 11.0176 4.8118L11.0045 4.80309L10.9916 4.79401C10.0178 4.1051 8.405 3.18305 6.77649 2.66702C5.07375 2.12747 3.74586 2.15018 2.96754 2.75447C2.3116 3.26374 2.11709 4.24621 2.60063 5.89206Z" fill="black"/>
<path fill-rule="evenodd" clip-rule="evenodd" d="M14.4049 15.9741C15.383 15.9741 16.1446 15.1903 16.1446 14.262C16.1446 13.3336 15.383 12.5498 14.4049 12.5498C13.4269 12.5498 12.6653 13.3336 12.6653 14.262C12.6653 15.1903 13.4269 15.9741 14.4049 15.9741ZM14.4049 18.1841C16.5826 18.1841 18.348 16.4281 18.348 14.262C18.348 12.0958 16.5826 10.3398 14.4049 10.3398C12.2273 10.3398 10.4619 12.0958 10.4619 14.262C10.4619 16.4281 12.2273 18.1841 14.4049 18.1841Z" fill="black"/>
<path d="M94.0518 13.7218V3.54883H100.285V5.25119H96.0836V7.5988H99.6393V9.30116H96.0836V12.0194H100.436V13.7218H94.0518Z" fill="black"/>
<path d="M88.7107 13.9147C88.0334 13.9147 87.3698 13.7866 86.72 13.5303C86.0702 13.2741 85.4981 12.908 85.0039 12.432L86.1709 11.0317C86.5278 11.3704 86.9351 11.6449 87.3927 11.8554C87.8595 12.0568 88.3125 12.1575 88.7519 12.1575C89.2827 12.1575 89.6854 12.0522 89.96 11.8417C90.2345 11.6312 90.3718 11.3475 90.3718 10.9905C90.3718 10.7343 90.3032 10.5329 90.1659 10.3865C90.0378 10.2309 89.8593 10.0936 89.6305 9.97461C89.4017 9.85562 89.1363 9.73664 88.8342 9.61766L87.4888 9.02732C87.1502 8.89004 86.8207 8.70699 86.5003 8.47818C86.1892 8.24021 85.9283 7.94276 85.7178 7.58581C85.5164 7.22886 85.4158 6.80327 85.4158 6.30904C85.4158 5.75074 85.5668 5.25193 85.8688 4.81261C86.1708 4.37329 86.5873 4.0255 87.1181 3.76923C87.649 3.5038 88.253 3.37109 88.9303 3.37109C89.5344 3.37109 90.1156 3.4855 90.6739 3.71431C91.2322 3.94312 91.7173 4.26804 92.1291 4.68905L91.0995 5.95209C90.7791 5.68667 90.4451 5.48074 90.0973 5.3343C89.7495 5.18786 89.3605 5.11464 88.9303 5.11464C88.491 5.11464 88.1386 5.21074 87.8732 5.40294C87.6169 5.58599 87.4888 5.84684 87.4888 6.18548C87.4888 6.42344 87.562 6.62022 87.7085 6.77581C87.8549 6.93141 88.0471 7.06869 88.2851 7.18768C88.523 7.29751 88.7839 7.41191 89.0676 7.53089L90.3993 8.06631C90.8112 8.23106 91.1681 8.43699 91.4701 8.68411C91.7813 8.93122 92.0193 9.22868 92.184 9.57647C92.3579 9.92427 92.4449 10.3453 92.4449 10.8395C92.4449 11.3887 92.2939 11.8966 91.9918 12.3634C91.6989 12.8302 91.2734 13.2054 90.7151 13.4892C90.1659 13.7729 89.4978 13.9147 88.7107 13.9147Z" fill="black"/>
<path d="M76.8057 13.7218V3.54883H80.3339C81.057 3.54883 81.7068 3.64493 82.2834 3.83713C82.86 4.02018 83.3177 4.34052 83.6563 4.79814C83.9949 5.24661 84.1643 5.85983 84.1643 6.63779C84.1643 7.38829 83.9949 8.00609 83.6563 8.49117C83.3177 8.9671 82.86 9.31947 82.2834 9.54828C81.7068 9.76794 81.057 9.87777 80.3339 9.87777H78.8375V13.7218H76.8057ZM78.8375 8.27151H80.1555C80.8144 8.27151 81.3133 8.13422 81.6519 7.85965C81.9997 7.58507 82.1736 7.17779 82.1736 6.63779C82.1736 6.08864 81.9997 5.70881 81.6519 5.49831C81.3133 5.27865 80.8144 5.16882 80.1555 5.16882H78.8375V8.27151ZM82.3246 13.7218L79.9633 9.35608L81.3911 8.09303L84.6036 13.7218H82.3246Z" fill="black"/>
<path d="M68.5518 13.7218V3.54883H74.7846V5.25119H70.5836V7.5988H74.1393V9.30116H70.5836V12.0194H74.9356V13.7218H68.5518Z" fill="black"/>
<path d="M62.0285 13.7218L58.9258 3.54883H61.0675L62.3991 8.50489C62.5639 9.0632 62.7058 9.60777 62.8247 10.1386C62.9529 10.6603 63.0947 11.2095 63.2503 11.7861H63.319C63.4837 11.2095 63.6302 10.6603 63.7583 10.1386C63.8864 9.60777 64.0283 9.0632 64.1839 8.50489L65.5018 3.54883H67.5611L64.4585 13.7218H62.0285Z" fill="black"/>
<path d="M55.9043 13.7218V3.54883H57.9361V13.7218H55.9043Z" fill="black"/>
<path d="M45.8135 13.7218V3.54883H47.8865L50.8382 8.97167L51.8678 11.1683H51.9365C51.8816 10.6374 51.8221 10.0562 51.758 9.42472C51.6939 8.7932 51.6619 8.18913 51.6619 7.61253V3.54883H53.5839V13.7218H51.5109L48.5867 8.28524L47.557 6.10237H47.4884C47.5341 6.65152 47.5891 7.2327 47.6531 7.84592C47.7172 8.45913 47.7492 9.05862 47.7492 9.64438V13.7218H45.8135Z" fill="black"/>
<path d="M39.6487 13.914C39.0172 13.914 38.4589 13.8271 37.9738 13.6532C37.4887 13.4701 37.0723 13.1864 36.7245 12.802C36.3858 12.4176 36.1296 11.9233 35.9557 11.3193C35.7818 10.7152 35.6948 9.99217 35.6948 9.15015V3.54883H37.7129V9.32862C37.7129 10.0334 37.7907 10.5917 37.9463 11.0035C38.1019 11.4154 38.3216 11.7128 38.6053 11.8959C38.8982 12.0698 39.246 12.1567 39.6487 12.1567C40.0514 12.1567 40.3992 12.0698 40.6921 11.8959C40.985 11.7128 41.2092 11.4154 41.3648 11.0035C41.5295 10.5917 41.6119 10.0334 41.6119 9.32862V3.54883H43.5614V9.15015C43.5614 9.99217 43.4744 10.7152 43.3005 11.3193C43.1266 11.9233 42.8704 12.4176 42.5317 12.802C42.1931 13.1864 41.7812 13.4701 41.2961 13.6532C40.8111 13.8271 40.2619 13.914 39.6487 13.914Z" fill="black"/>
<path d="M142.099 25.4601V16.9895H139.243V15.2871H147V16.9895H144.131V25.4601H142.099Z" fill="black"/>
<path d="M129.99 25.4601V15.2871H132.063L135.014 20.71L136.044 22.9065H136.113C136.058 22.3757 135.998 21.7945 135.934 21.163C135.87 20.5315 135.838 19.9274 135.838 19.3508V15.2871H137.76V25.4601H135.687L132.763 20.0235L131.733 17.8407H131.665C131.71 18.3898 131.765 18.971 131.829 19.5842C131.893 20.1974 131.925 20.7969 131.925 21.3827V25.4601H129.99Z" fill="black"/>
<path d="M121.736 25.4601V15.2871H127.969V16.9895H123.768V19.3371H127.323V21.0394H123.768V23.7577H128.12V25.4601H121.736Z" fill="black"/>
<path d="M110.224 25.4601V15.2871H112.475L114.205 20.0647C114.315 20.3667 114.42 20.6871 114.521 21.0257C114.621 21.3552 114.722 21.6801 114.823 22.0005H114.891C115.001 21.6801 115.106 21.3552 115.207 21.0257C115.308 20.6871 115.404 20.3667 115.495 20.0647L117.198 15.2871H119.449V25.4601H117.596V21.2179C117.596 20.8884 117.61 20.5269 117.637 20.1333C117.665 19.7398 117.697 19.3462 117.733 18.9527C117.779 18.55 117.82 18.193 117.857 17.8818H117.802L116.964 20.2706L115.399 24.5403H114.232L112.654 20.2706L111.844 17.8818H111.789C111.825 18.193 111.862 18.55 111.899 18.9527C111.935 19.3462 111.967 19.7398 111.995 20.1333C112.031 20.5269 112.05 20.8884 112.05 21.2179V25.4601H110.224Z" fill="black"/>
<path d="M100.133 25.4601V15.2871H102.206L105.158 20.71L106.187 22.9065H106.256C106.201 22.3757 106.141 21.7945 106.077 21.163C106.013 20.5315 105.981 19.9274 105.981 19.3508V15.2871H107.903V25.4601H105.83L102.906 20.0235L101.876 17.8407H101.808C101.853 18.3898 101.908 18.971 101.972 19.5842C102.037 20.1974 102.069 20.7969 102.069 21.3827V25.4601H100.133Z" fill="black"/>
<path d="M95.7935 25.4601V15.2871H97.8253V25.4601H95.7935Z" fill="black"/>
<path d="M85.8862 25.4601L89.1399 15.2871H91.5425L94.7962 25.4601H92.6545L91.213 20.1608C91.0574 19.63 90.9064 19.0808 90.7599 18.5134C90.6226 17.9368 90.4762 17.3785 90.3206 16.8385H90.2657C90.1376 17.3876 89.9957 17.9459 89.8401 18.5134C89.6937 19.0808 89.5472 19.63 89.4008 20.1608L87.9455 25.4601H85.8862ZM87.9044 22.8516V21.2728H92.7369V22.8516H87.9044Z" fill="black"/>
<path d="M81.5177 25.4601V16.9895H78.6621V15.2871H86.4188V16.9895H83.5495V25.4601H81.5177Z" fill="black"/>
<path d="M70.6821 25.4601V15.2871H74.2104C74.9335 15.2871 75.5833 15.3832 76.1599 15.5754C76.7365 15.7585 77.1941 16.0788 77.5328 16.5364C77.8714 16.9849 78.0407 17.5981 78.0407 18.3761C78.0407 19.1266 77.8714 19.7444 77.5328 20.2294C77.1941 20.7054 76.7365 21.0577 76.1599 21.2866C75.5833 21.5062 74.9335 21.616 74.2104 21.616H72.714V25.4601H70.6821ZM72.714 20.0098H74.0319C74.6909 20.0098 75.1897 19.8725 75.5284 19.5979C75.8762 19.3234 76.0501 18.9161 76.0501 18.3761C76.0501 17.8269 75.8762 17.4471 75.5284 17.2366C75.1897 17.0169 74.6909 16.9071 74.0319 16.9071H72.714V20.0098ZM76.2011 25.4601L73.8397 21.0944L75.2675 19.8313L78.48 25.4601H76.2011Z" fill="black"/>
<path d="M62.4282 25.4601V15.2871H68.6611V16.9895H64.4601V19.3371H68.0158V21.0394H64.4601V23.7577H68.8121V25.4601H62.4282Z" fill="black"/>
<path d="M56.0582 25.4601V16.9895H53.2026V15.2871H60.9594V16.9895H58.0901V25.4601H56.0582Z" fill="black"/>
<path d="M43.9492 25.4601V15.2871H46.0223L48.9739 20.71L50.0036 22.9065H50.0722C50.0173 22.3757 49.9578 21.7945 49.8938 21.163C49.8297 20.5315 49.7977 19.9274 49.7977 19.3508V15.2871H51.7197V25.4601H49.6466L46.7224 20.0235L45.6928 17.8407H45.6241C45.6699 18.3898 45.7248 18.971 45.7889 19.5842C45.8529 20.1974 45.885 20.7969 45.885 21.3827V25.4601H43.9492Z" fill="black"/>
<path d="M35.6948 25.4601V15.2871H41.9277V16.9895H37.7267V19.3371H41.2824V21.0394H37.7267V23.7577H42.0787V25.4601H35.6948Z" fill="black"/>
</svg>
